<?xml version="1.0" encoding="UTF-8" standalone="no"?><svg xmlns="http://www.w3.org/2000/svg" viewBox="0 0 218.86 218.86"><defs><style>.cls-1{fill:#fff;}</style></defs><g id="Layer_2" data-name="Layer 2"><g id="Layer_1-2" data-name="Layer 1"><path class="cls-1" d="M109.43,218.86A109.43,109.43,0,1,1,218.86,109.43,109.55,109.55,0,0,1,109.43,218.86Zm0-213.47a104,104,0,1,0,104,104A104.16,104.16,0,0,0,109.43,5.39Z"/><path class="cls-1" d="M79.12,90.29a2.63,2.63,0,0,1-1.34-.37L37.56,66.71a2.7,2.7,0,0,1-1-3.69,84.13,84.13,0,0,1,145.72,0,2.71,2.71,0,0,1-1,3.69L141.09,89.92a2.69,2.69,0,0,1-3.68-1,32.48,32.48,0,0,0-55.95,0A2.71,2.71,0,0,1,79.12,90.29ZM42.63,63.41,78.22,84a37.92,37.92,0,0,1,62.42,0l35.6-20.54a78.74,78.74,0,0,0-133.61,0Z"/><path class="cls-1" d="M109.43,73a2.68,2.68,0,0,1-2.69-2.69V48.64a2.7,2.7,0,0,1,5.4,0V70.27A2.69,2.69,0,0,1,109.43,73Z"/><path class="cls-1" d="M95.85,45.46a2.7,2.7,0,0,1-2.61-2l-2.51-9.75A2.7,2.7,0,0,1,96,32.34l2.5,9.75a2.7,2.7,0,0,1-1.94,3.28A2.57,2.57,0,0,1,95.85,45.46Z"/><path class="cls-1" d="M83.17,47.91a2.67,2.67,0,0,1-2.4-1.47l-3.56-7A2.69,2.69,0,0,1,82,37l3.56,7a2.7,2.7,0,0,1-1.18,3.63A2.67,2.67,0,0,1,83.17,47.91Z"/><path class="cls-1" d="M73.74,56.75a2.69,2.69,0,0,1-2.08-1l-6.37-7.69a2.7,2.7,0,1,1,4.15-3.44l6.37,7.69a2.69,2.69,0,0,1-2.07,4.41Z"/><path class="cls-1" d="M61.9,62.92a2.64,2.64,0,0,1-1.53-.48l-4.72-3.26a2.69,2.69,0,1,1,3.06-4.43L63.43,58a2.7,2.7,0,0,1-1.53,4.92Z"/><path class="cls-1" d="M123,45.46a2.57,2.57,0,0,1-.67-.09,2.69,2.69,0,0,1-1.94-3.28l2.51-9.75a2.69,2.69,0,0,1,5.22,1.34l-2.51,9.75A2.7,2.7,0,0,1,123,45.46Z"/><path class="cls-1" d="M135.69,47.91a2.67,2.67,0,0,1-1.22-.29A2.7,2.7,0,0,1,133.29,44l3.56-7a2.69,2.69,0,0,1,4.8,2.45l-3.55,7A2.7,2.7,0,0,1,135.69,47.91Z"/><path class="cls-1" d="M145.13,56.75a2.66,2.66,0,0,1-1.72-.62,2.69,2.69,0,0,1-.36-3.79l6.38-7.69a2.7,2.7,0,1,1,4.15,3.44l-6.38,7.69A2.68,2.68,0,0,1,145.13,56.75Z"/><path class="cls-1" d="M157,62.92A2.7,2.7,0,0,1,155.43,58l4.72-3.25a2.69,2.69,0,1,1,3.07,4.43l-4.73,3.26A2.64,2.64,0,0,1,157,62.92Z"/><path class="cls-1" d="M109.43,42.33a2.69,2.69,0,0,1-2.69-2.7v-7.5a2.7,2.7,0,1,1,5.4,0v7.5A2.7,2.7,0,0,1,109.43,42.33Z"/></g></g></svg>