<?xml version="1.0" encoding="UTF-8" standalone="no"?><svg xmlns="http://www.w3.org/2000/svg" viewBox="0 0 26.45 27.6"><defs><style>.cls-1,.cls-2,.cls-3,.cls-4{fill:none;stroke:#fff;stroke-linecap:round;stroke-linejoin:round;}.cls-1{stroke-width:0.97px;}.cls-2{stroke-width:0.97px;}.cls-3{stroke-width:0.97px;}.cls-4{stroke-width:0.97px;}</style></defs><g id="Layer_2" data-name="Layer 2"><g id="Layer_1-2" data-name="Layer 1"><path class="cls-1" d="M7.7,2.4h.52A1.91,1.91,0,1,1,12,2.4h.51a1.68,1.68,0,1,1,0,3.35H7.7a1.68,1.68,0,1,1,0-3.35Z"/><path class="cls-2" d="M14.22,3.89h5.55V8.06m0,17.1v1.95H.49V3.89H6"/><path class="cls-3" d="M13.11,8.25C12,8.87,12,10.76,13,12.47a4.09,4.09,0,0,0,2.71,2.15l5.81,10.49,1-.59,1-.6L17.35,13.65a4.13,4.13,0,0,0-.51-3.43c-1-1.7-2.65-2.59-3.73-2Z"/><path class="cls-4" d="M26,9.58l-1.73,3a4,4,0,0,1-2.63,2.09l-1.74,3.14M18.64,20,16,24.86l-1-.58-1-.58,3.5-5.83m1.22-2L20,13.73a4,4,0,0,1,.49-3.33l1.74-3m2,1.15L22,12.26"/></g></g></svg>