<?xml version="1.0" encoding="UTF-8" standalone="no"?><svg xmlns="http://www.w3.org/2000/svg" viewBox="0 0 246.12 259.73"><defs><style>.cls-1,.cls-2{fill:#fff;}.cls-2{fill-rule:evenodd;}</style></defs><g id="Layer_2" data-name="Layer 2"><g id="Layer_1-2" data-name="Layer 1"><path class="cls-1" d="M197.23,259.73H129.14a2.69,2.69,0,0,1-2.69-2.7v-69.3H120.2V257a2.7,2.7,0,0,1-2.7,2.7H48.9a2.69,2.69,0,0,1-2.58-1.92c-14.56-48.33-17-81.89-8.24-112.2,1.42-6.08,7-19.57,8.62-22.28,2.45-5.07,5.2-10.13,8.41-15.45,19.77-43.7,17.6-86-5.29-103A2.7,2.7,0,0,1,51.42,0H194.7a2.69,2.69,0,0,1,1.6,4.86c-22.89,17-25.06,59.32-5.28,103,3.19,5.29,6,10.53,8.46,15.58,1.93,3.14,7.08,15.79,8.55,22.14,8.8,30.31,6.34,63.88-8.22,112.21A2.71,2.71,0,0,1,197.23,259.73Zm-65.39-5.39h63.38c13.6-45.79,16-76.62,8.19-105.3-22.59.73-61,8.69-71.3,34.57a3.07,3.07,0,0,1-.38.66,2.76,2.76,0,0,1,.11.77Zm-80.94,0h63.91V185a2.76,2.76,0,0,1,.1-.77,2.67,2.67,0,0,1-.37-.66C105.47,160.93,71.39,149.9,42.72,149,34.89,177.71,37.3,208.55,50.9,254.34Zm68.22-73.73a9.78,9.78,0,0,0,8.37.07c11.65-27.17,50.5-35.91,74.33-37A134.43,134.43,0,0,0,195.65,128a273.65,273.65,0,0,1-72.12,9.91h-.41a279.52,279.52,0,0,1-72.58-10A135.62,135.62,0,0,0,44.3,143.7C68.3,144.76,107.43,153.49,119.12,180.61ZM52.93,122.89a273.59,273.59,0,0,0,70.2,9.59h.38A268.46,268.46,0,0,0,193.26,123c-2.06-4.07-4.39-8.26-6.94-12.5l-.15-.27c-19.58-43.15-18.74-84,1.39-104.86h-129c20.13,20.86,21,61.7,1.39,104.86a1.43,1.43,0,0,1-.15.27C57.24,114.78,55,118.85,52.93,122.89Z"/><path class="cls-2" d="M123.06,100.5a3.14,3.14,0,1,1-3.14,3.14,3.15,3.15,0,0,1,3.14-3.14Z"/><path class="cls-1" d="M123.06,107.23a3.59,3.59,0,1,1,3.59-3.59A3.59,3.59,0,0,1,123.06,107.23Zm0-6.28a2.69,2.69,0,1,0,2.69,2.69A2.7,2.7,0,0,0,123.06,101Z"/><path class="cls-1" d="M13.33,107.92a2.8,2.8,0,0,1-.7-.09A2.71,2.71,0,0,1,11,106.57L.36,88.15a2.68,2.68,0,0,1,1-3.68l16.13-9.31-4-6.88a2.69,2.69,0,0,1,3-4L45.6,72.11a2.7,2.7,0,0,1,1.9,3.31l-7.78,29.05a2.69,2.69,0,0,1-4.94.65l-4-6.87-16.13,9.31A2.68,2.68,0,0,1,13.33,107.92ZM6.38,87.79l7.94,13.75,16.13-9.31a2.7,2.7,0,0,1,3.68,1l2.06,3.57L41.6,76.62l-20.17-5.4,2.06,3.58a2.65,2.65,0,0,1,.27,2,2.68,2.68,0,0,1-1.25,1.64Z"/><path class="cls-1" d="M232.79,107.92a2.64,2.64,0,0,1-1.34-.36l-16.13-9.31-4,6.87a2.69,2.69,0,0,1-4.93-.65l-7.79-29a2.71,2.71,0,0,1,1.91-3.31l29.05-7.78a2.7,2.7,0,0,1,3,4l-4,6.88,16.13,9.31A2.7,2.7,0,0,1,246,86.1a2.67,2.67,0,0,1-.27,2.05l-10.63,18.42a2.68,2.68,0,0,1-2.34,1.35Zm-18.46-16a2.66,2.66,0,0,1,1.35.36l16.13,9.31,7.94-13.75-16.13-9.31a2.73,2.73,0,0,1-1.26-1.64,2.65,2.65,0,0,1,.27-2l2.06-3.58-20.16,5.4,5.4,20.17L212,93.22A2.69,2.69,0,0,1,214.33,91.87Z"/></g></g></svg>