<?xml version="1.0" encoding="UTF-8" standalone="no"?><svg xmlns="http://www.w3.org/2000/svg" viewBox="0 0 177.75 109.74"><defs><style>.cls-1,.cls-2{fill:#fff;}.cls-2{fill-rule:evenodd;}</style></defs><g id="Layer_2" data-name="Layer 2"><g id="Layer_1-2" data-name="Layer 1"><path class="cls-1" d="M138.05,109.74a16.28,16.28,0,0,1-16.26-16.26V16.26a16.26,16.26,0,1,1,32.52,0v5.36A11,11,0,0,1,171,31.11V78.62a11,11,0,0,1-16.69,9.49v5.37A16.28,16.28,0,0,1,138.05,109.74Zm0-104.35a10.89,10.89,0,0,0-10.87,10.87V93.48a10.87,10.87,0,0,0,10.87,10.86h0a10.88,10.88,0,0,0,10.87-10.86V16.26A10.89,10.89,0,0,0,138.05,5.39ZM160,25.46a5.65,5.65,0,0,0-5.65,5.65V78.62a5.65,5.65,0,1,0,11.3,0V31.11A5.65,5.65,0,0,0,160,25.46ZM39.7,109.74A16.28,16.28,0,0,1,23.44,93.48V88.11a11,11,0,0,1-16.7-9.49V31.11a11.05,11.05,0,0,1,16.7-9.49V16.26a16.26,16.26,0,0,1,32.52,0V93.48A16.29,16.29,0,0,1,39.7,109.74ZM28.83,78.62V93.48A10.87,10.87,0,0,0,39.7,104.34h0A10.88,10.88,0,0,0,50.57,93.48V16.26a10.87,10.87,0,1,0-21.74,0Zm-11-53.16a5.66,5.66,0,0,0-5.65,5.65V78.62a5.66,5.66,0,1,0,11.31,0V31.11A5.66,5.66,0,0,0,17.78,25.46Z"/><path class="cls-2" d="M9.44,45.24H3.14c-1.48,0-2.69,2.5-2.69,5.55V59c0,3,1.21,5.54,2.69,5.54h6.3V45.24Z"/><path class="cls-1" d="M9.89,64.94H3.14C1.38,64.94,0,62.31,0,59V50.79c0-3.36,1.38-6,3.14-6H9.89ZM3.14,45.69c-1.06,0-2.24,2.1-2.24,5.1V59C.9,62,2.08,64,3.14,64H9V45.69Z"/><path class="cls-2" d="M168.31,45.24h6.29c1.48,0,2.7,2.5,2.7,5.55V59c0,3-1.22,5.54-2.7,5.54h-6.29V45.24Z"/><path class="cls-1" d="M174.6,64.94h-6.74V44.79h6.74c1.77,0,3.15,2.64,3.15,6V59C177.75,62.31,176.37,64.94,174.6,64.94Zm-5.84-.9h5.84c1.06,0,2.25-2.09,2.25-5.09V50.79c0-3-1.19-5.1-2.25-5.1h-5.84Z"/><polygon class="cls-2" points="53.26 45.24 124.48 45.24 124.48 64.49 53.26 64.49 53.26 45.24 53.26 45.24"/><path class="cls-1" d="M124.93,64.94H52.81V44.79h72.12ZM53.71,64H124V45.69H53.71Z"/></g></g></svg>