<?xml version="1.0" encoding="utf-8"?>
<!-- Generator: Adobe Illustrator 25.0.0, SVG Export Plug-In . SVG Version: 6.00 Build 0)  -->
<svg version="1.1" id="Layer_1" xmlns="http://www.w3.org/2000/svg" xmlns:xlink="http://www.w3.org/1999/xlink" x="0px" y="0px"
	 viewBox="0 0 1165.2 211.6" style="enable-background:new 0 0 1165.2 211.6;" xml:space="preserve">
<style type="text/css">
	.st0{fill:#FFFFFF;}
	.st1{fill:#D72730;}
	.st2{fill:#121820;}
</style>
<g>
	<g>
		<g>
			<path class="st0" d="M311.7,2h31.4l23,64.2l23-64.2H420l-41.1,102.1h-26.1L311.7,2z"/>
			<path class="st0" d="M450.5,1.3h27.1l43.2,102.1h-30.1l-7.4-18.1h-39.1l-7.2,18.1h-29.6L450.5,1.3z M475.1,63.5l-11.3-28.8
				l-11.4,28.8H475.1z"/>
			<path class="st0" d="M530.6,2h28.1v76.8h49.1v24.6h-77.2V2z"/>
			<path class="st0" d="M620.4,2h28.2v101.4h-28.2V2z"/>
			<path class="st0" d="M707.9,2h28.2v101.4h-28.2V2z"/>
			<path class="st0" d="M751.2,53v-0.3c0-29.6,23.2-52.7,54.6-52.7c17.8,0,30.4,5.5,41.1,14.8l-16.5,19.8
				c-7.2-6.1-14.5-9.6-24.5-9.6c-14.6,0-25.9,12.3-25.9,27.8v0.3c0,16.4,11.5,28.1,27.5,28.1c6.8,0,12-1.5,16.2-4.2V64.8h-20V44.2
				h46.6v45.6c-10.7,8.8-25.6,15.6-44,15.6C774.8,105.5,751.2,83.7,751.2,53z"/>
			<path class="st0" d="M866,2h26.2L934,55.6V2h27.8v101.4h-24.6l-43.3-55.6v55.6H866V2z"/>
			<path class="st0" d="M1014.8,1.3h27.1l43.2,102.1h-30.1l-7.4-18.1h-39.1l-7.2,18.1h-29.5L1014.8,1.3z M1039.4,63.5l-11.3-28.8
				l-11.4,28.8H1039.4z"/>
			<path class="st0" d="M1106.7,26.7h-30.4V2h88.9v24.6h-30.4v76.8h-28.1V26.7z"/>
		</g>
		<g>
			<path class="st1" d="M321.6,201.7h17.1v8.1h-27v-69.1h9.9V201.7z"/>
			<path class="st1" d="M345.8,140.7h9.9v69.1h-9.9V140.7z"/>
			<path class="st1" d="M387.9,198.5v-16.9c0-1.3-0.2-2.2-0.6-2.6c-0.4-0.4-1.3-0.6-2.6-0.6h-8.2c-6.7,0-10-3.3-10-9.8v-18.2
				c0-6.5,3.4-9.7,10.3-9.7h10.8c6.8,0,10.3,3.2,10.3,9.7v10.1h-10v-8.6c0-1.3-0.2-2.2-0.7-2.6c-0.4-0.4-1.3-0.6-2.6-0.6h-4.6
				c-1.3,0-2.2,0.2-2.6,0.6c-0.4,0.4-0.7,1.3-0.7,2.6v15.3c0,1.3,0.2,2.2,0.7,2.6c0.4,0.4,1.3,0.6,2.6,0.6h8.1
				c6.8,0,10.1,3.2,10.1,9.7V200c0,6.5-3.5,9.7-10.4,9.7H377c-6.8,0-10.3-3.2-10.3-9.7v-10.1h10v8.6c0,1.3,0.2,2.2,0.7,2.6
				c0.4,0.4,1.3,0.6,2.6,0.6h4.6c1.3,0,2.2-0.2,2.6-0.6C387.7,200.7,387.9,199.8,387.9,198.5z"/>
			<path class="st1" d="M435.8,140.7v8.1h-11.6v61h-9.9v-61h-11.6v-8.1H435.8z"/>
			<path class="st1" d="M452.1,201.7h20v8.1h-30v-69.1h29.2v8.1h-19.2V170H468v8.1h-15.9V201.7z"/>
			<path class="st1" d="M504.5,140.7h9.2v69.1h-10l-14.6-49.9v49.9h-9.2v-69.1h10.5l14.1,48.4V140.7z"/>
			<path class="st1" d="M526,140.7h9.9v69.1H526V140.7z"/>
			<path class="st1" d="M572.9,140.7h9.2v69.1h-10l-14.6-49.9v49.9h-9.2v-69.1h10.5l14.1,48.4V140.7z"/>
			<path class="st1" d="M625.3,160.9h-10v-9.2c0-1.3-0.2-2.2-0.7-2.6c-0.4-0.4-1.3-0.6-2.7-0.6h-5.6c-1.3,0-2.2,0.2-2.6,0.6
				c-0.4,0.4-0.7,1.3-0.7,2.6v47.1c0,1.3,0.2,2.2,0.7,2.6c0.4,0.4,1.3,0.6,2.6,0.6h5.6c1.3,0,2.2-0.2,2.7-0.6
				c0.4-0.4,0.7-1.3,0.7-2.6v-16.9h-5.5v-7.7h15.6V200c0,6.5-3.4,9.8-10.3,9.8h-11.8c-6.8,0-10.3-3.3-10.3-9.8v-49.6
				c0-6.5,3.4-9.7,10.3-9.7H615c6.8,0,10.3,3.2,10.3,9.7V160.9z"/>
			<path class="st1" d="M652.5,140.7h9.9v69.1h-9.9V140.7z"/>
			<path class="st1" d="M694.7,198.5v-16.9c0-1.3-0.2-2.2-0.6-2.6c-0.4-0.4-1.3-0.6-2.6-0.6h-8.2c-6.7,0-10-3.3-10-9.8v-18.2
				c0-6.5,3.4-9.7,10.3-9.7h10.8c6.8,0,10.3,3.2,10.3,9.7v10.1h-10v-8.6c0-1.3-0.2-2.2-0.7-2.6c-0.4-0.4-1.3-0.6-2.6-0.6h-4.6
				c-1.3,0-2.2,0.2-2.6,0.6c-0.4,0.4-0.7,1.3-0.7,2.6v15.3c0,1.3,0.2,2.2,0.7,2.6c0.4,0.4,1.3,0.6,2.6,0.6h8.1
				c6.8,0,10.1,3.2,10.1,9.7V200c0,6.5-3.5,9.7-10.4,9.7h-10.7c-6.8,0-10.3-3.2-10.3-9.7v-10.1h10v8.6c0,1.3,0.2,2.2,0.7,2.6
				c0.4,0.4,1.3,0.6,2.6,0.6h4.6c1.3,0,2.2-0.2,2.6-0.6C694.5,200.7,694.7,199.8,694.7,198.5z"/>
			<path class="st1" d="M730.6,140.7h22.6c6.8,0,10.3,3.2,10.3,9.7v22.9c0,6.5-3.4,9.7-10.3,9.7h-12.7v26.7h-9.9V140.7z
				 M753.6,171.8v-19.9c0-1.3-0.2-2.2-0.7-2.6c-0.4-0.4-1.3-0.6-2.7-0.6h-9.7v26.4h9.7c1.3,0,2.2-0.2,2.7-0.7
				C753.4,174,753.6,173.1,753.6,171.8z"/>
			<path class="st1" d="M782.2,140.7h12.2c6.8,0,10.3,3.2,10.3,9.7V200c0,6.5-3.4,9.7-10.3,9.7h-12.2c-6.9,0-10.4-3.2-10.4-9.7
				v-49.6C771.8,143.9,775.2,140.7,782.2,140.7z M794.7,198.5v-46.6c0-1.3-0.2-2.2-0.7-2.6c-0.4-0.4-1.3-0.6-2.6-0.6H785
				c-1.3,0-2.2,0.2-2.6,0.6c-0.4,0.4-0.6,1.3-0.6,2.6v46.6c0,1.3,0.2,2.2,0.6,2.6c0.4,0.4,1.3,0.6,2.6,0.6h6.4
				c1.3,0,2.2-0.2,2.6-0.6C794.5,200.7,794.7,199.8,794.7,198.5z"/>
			<path class="st1" d="M866,140.7h10l-11,69.1h-13.8l-7.7-51.9l-7.6,51.9h-13.8l-11-69.1h10.3l7.7,60l8.9-60h11l8.9,60L866,140.7z"
				/>
			<path class="st1" d="M892.9,201.7h20v8.1h-30v-69.1h29.2v8.1h-19.2V170h15.9v8.1h-15.9V201.7z"/>
			<path class="st1" d="M930.6,181.8v27.9h-9.9v-69.1h22.6c6.8,0,10.3,3.2,10.3,9.7V172c0,5.6-2.5,8.8-7.4,9.6l10.9,28.1h-10.7
				L936,181.8H930.6z M930.6,148.7v25.1h9.7c1.3,0,2.2-0.2,2.7-0.6c0.4-0.4,0.7-1.3,0.7-2.6v-18.8c0-1.3-0.2-2.2-0.7-2.6
				c-0.4-0.4-1.3-0.6-2.7-0.6H930.6z"/>
		</g>
	</g>
	<g>
		<path class="st0" d="M166.5,36.3H68.4c-2,0-3.3,2.2-2.2,3.9l48.8,80.5c0.7,1.2,0.7,2.7,0,3.9l-17.7,29.2c-1.5,2.4-5,2.4-6.4,0
			L19.2,36.3L0.6,5.7C-1,3.2,0.8,0,3.8,0H184c2.9,0,4.8,3.2,3.2,5.7l-17.5,28.8C169,35.7,167.8,36.3,166.5,36.3z"/>
		<polygon class="st2" points="182,55.3 128.6,143.3 182,55.3 		"/>
		<path class="st1" d="M255.3,5.7l-17.5,28.8c-0.7,1.1-1.9,1.8-3.2,1.8h-34.3c-2.9,0-4.8-3.2-3.2-5.7l17.5-28.8
			c0.7-1.1,1.9-1.8,3.2-1.8h34.4C255,0,256.8,3.2,255.3,5.7z"/>
		<path class="st1" d="M221.7,61l-90.5,148.8c-1.5,2.4-5,2.4-6.5,0l-17-28c-0.7-1.2-0.7-2.7,0-3.9l20.9-34.5l52.3-86.2
			c0.7-1.1,1.9-1.8,3.2-1.8h34.3C221.4,55.3,223.2,58.5,221.7,61z"/>
	</g>
</g>
</svg>
