<?xml version="1.0" encoding="UTF-8" standalone="no"?><svg id="Layer_1" data-name="Layer 1" xmlns="http://www.w3.org/2000/svg" viewBox="0 0 272.41 199.64"><defs><style>.cls-1,.cls-10,.cls-11{fill:#fff;}.cls-2,.cls-7,.cls-9{fill:#000;}.cls-3{fill:#000;}.cls-4{fill:#000;}.cls-5{fill:#000;}.cls-5,.cls-6,.cls-7{stroke:#a90437;}.cls-10,.cls-11,.cls-12,.cls-5,.cls-6,.cls-7,.cls-8,.cls-9{stroke-miterlimit:10;}.cls-6{fill:#000;}.cls-8{stroke:#231f20;}.cls-10,.cls-9{stroke:#000;}.cls-12,.cls-9{stroke-width:0.25px;}.cls-11,.cls-12{stroke:#b92f27;}.cls-11{stroke-width:3px;}.cls-12{fill:#b92f27;}</style></defs><path class="cls-1" d="M228,326.53l14.44,9.32c0-.77.46-1.32.21-2,.23-.1.26-.3.25-.52.15-.46.26-.95.45-1.39a1.24,1.24,0,0,0-.68-1.83c-1.46-.82-2.8-1.83-4.23-2.71-.55-.34-.69-.61-.35-1.23a83.71,83.71,0,0,0,5.49-12c1.24-3.51,2.29-7.07,2.06-10.86a5.74,5.74,0,0,0-2.33-4.77c-2.53-1.72-5.09-3.39-7.63-5.1-3-2-6-2.25-9-.28a6.48,6.48,0,0,0-.84.51.84.84,0,0,1-1.17,0c-1.58-1.08-3.21-2.1-4.83-3.14a4.21,4.21,0,0,0-2.9-.65,13,13,0,0,0-5.41,2.44c-.71.47-1.38,1.37-2.07,1.38s-1.5-.75-2.16-1.28c-2.06-1.68-4.13-1.43-6.22-.12a20.88,20.88,0,0,0-2.11,1.47c-5.27,4.37-9.09,9.89-12.44,15.77A36.61,36.61,0,0,0,182,320.65c-.77,3.93-.29,5.43,2.59,7.1,2.05,1.2,2,1.27,1.46,3.68-.11.48-.16,1-.28,1.44a6.65,6.65,0,0,0,2.75,7.57,29.6,29.6,0,0,0,3.61,2.28c1,.52,1.07,1.18.94,2.15-.45,3.28.33,6.06,3.32,7.93,2.84,1.77,5.63,3.62,8.47,5.4a4.63,4.63,0,0,0,3.18.58c2.91-.4,5.24-2,7.48-3.72a69.39,69.39,0,0,0,12.17-12.87c.47-.61.78-.65,1.42-.23,3.67,2.44,7.37,4.83,11.08,7.22a2.89,2.89,0,0,0,1.43.71c-.06-1.12-.12-2.18-.18-3.23l0-.66a45.28,45.28,0,0,1,.32-5.58,1.24,1.24,0,0,0-.64-1.29q-6.82-4.41-13.61-8.85c-1.78-1.15-1.79-1.14-3,.47l-.27-.26a12.54,12.54,0,0,1,3-4.23Z" transform="translate(-181.71 -289.45)"/><path class="cls-1" d="M393.15,333.92c-.2.63.15,1.18.3,1.89l14.38-9.32h1a7,7,0,0,1,2.23,3.74c-.7-1.15-1.43-.84-2.37-.22-4.66,3.09-9.35,6.11-14,9.14a1.16,1.16,0,0,0-.62,1.19c.14,1.92.22,3.83.31,5.75l.09.59c-.07,1-.13,2.08-.21,3.2a2.48,2.48,0,0,0,1.2-.55c3.8-2.47,7.61-4.92,11.39-7.41.52-.34.79-.42,1.24.15,1.65,2.08,3.31,4.15,5.07,6.13,3.17,3.54,6.53,6.88,10.74,9.2,2.15,1.19,4.52,2.22,6.85.89a82,82,0,0,0,9.67-6.22,6.25,6.25,0,0,0,2.53-5.31,19.91,19.91,0,0,0-.21-2.44,1.16,1.16,0,0,1,.66-1.37c1-.53,1.88-1.15,2.8-1.75,3.81-2.45,4.71-4.56,3.82-9-.2-1-.95-2.15-.58-3.06s1.67-1.36,2.61-1.9a4.34,4.34,0,0,0,2.14-4.35,13.42,13.42,0,0,0-.58-3.49c-2.65-8.78-7.56-16.22-13.69-22.91a20.42,20.42,0,0,0-5.5-4.44c-1.93-1-3.78-1.22-5.59.28-.5.42-1.14.66-1.63,1.08s-.93.39-1.45-.05a17.44,17.44,0,0,0-4.9-3,4.94,4.94,0,0,0-4.58.05c-1.63,1-3.26,2-4.83,3.12a1.16,1.16,0,0,1-1.6,0c-3.35-2.29-6.65-2.22-10,.16-2.32,1.66-4.72,3.21-7.11,4.77a4.82,4.82,0,0,0-2.09,2.76c-.91,3.07-.35,6.08.43,9.05A71.93,71.93,0,0,0,397.63,326c.41.76.3,1.09-.4,1.51-1.49.91-2.94,1.9-4.41,2.87-.25.16-.74.24-.57.65.3.76.14,1.71.87,2.31Z" transform="translate(-181.71 -289.45)"/><path class="cls-1" d="M383.73,427.44l-.35,0c-.14.8-.49,1.63.44,2.22,1.24.79,2.45,1.6,3.68,2.4l21.78,14.17c0,.45.24.56.61.57a13.46,13.46,0,0,1-3.11,4.92l-.14-.21c-.07-.3.18-.43.31-.61,1.05-1.46,1.06-1.45-.41-2.4l-15.37-10c-2.67-1.73-5.32-3.48-8-5.2-.26-.16-.66-.78-.95-.14a49,49,0,0,1-2.93,4.6c-.19,0-.24.15-.19.33a8.35,8.35,0,0,0-1.9,2l1.34.9c5.37,3.5,10.72,7,16.12,10.47.78.5.86.84.42,1.67a81.15,81.15,0,0,0-5.27,11.54c-1.24,3.52-2.3,7.06-2.13,10.85a6.14,6.14,0,0,0,3,5.4c2.33,1.42,4.55,3,6.84,4.53s5.14,2.78,7.76,1c2.41-1.66,4-.82,5.93.6,3.95,2.84,6,2.76,10,.07.24-.16.47-.33.7-.5,2-1.45,2-1.55,4-.05,2.16,1.62,4.22,1.45,6.35.13a17.74,17.74,0,0,0,2.19-1.56c5.06-4.22,8.76-9.53,12-15.17a38,38,0,0,0,4.69-11.24c.95-4.54.4-5.87-3.07-7.76-.21-.12-.39-.3-.61-.4a1.13,1.13,0,0,1-.68-1.56,20.3,20.3,0,0,0,.76-4.58c.07-2.5-.58-4.58-2.95-5.86-1.08-.57-2-1.39-3.12-1.93a2.25,2.25,0,0,1-1.34-2.84,6.77,6.77,0,0,0-3.12-7.4q-4.29-2.82-8.66-5.55a5.22,5.22,0,0,0-4.15-.4,17,17,0,0,0-6.22,3.32c-4.8,3.63-8.65,8.18-12.31,12.9-.67.85-1,.75-1.82.25-5.42-3.56-10.87-7.08-16.31-10.61l-5.39-3.49c.22.92.39,1.58.54,2.25.19.84.38,1.66,1.27,2.06Z" transform="translate(-181.71 -289.45)"/><path class="cls-1" d="M249.84,427.05l-.11-.56c1-1.1.65-2.61,1.29-3.83a6.38,6.38,0,0,0-1.22.65q-10.32,6.7-20.62,13.42c-.65.43-1,.44-1.45-.23-.67-1-1.44-1.88-2.2-2.79-4-4.75-8.11-9.43-13.67-12.48-2.26-1.24-4.69-2.1-7.18-.58-2.82,1.72-5.6,3.53-8.35,5.35a7,7,0,0,0-3.34,6.76,14,14,0,0,0,.2,1.71,1.07,1.07,0,0,1-.63,1.26c-1.53.95-3,2-4.53,2.93a4.63,4.63,0,0,0-2.19,3.5,14.08,14.08,0,0,0,.13,4.39c.17,1,1,2.19.49,3.05s-1.63,1.29-2.54,1.82a4.06,4.06,0,0,0-2.16,3.47,13.54,13.54,0,0,0,.73,5.06A60.18,60.18,0,0,0,196,482.16a18,18,0,0,0,6.39,4.85,4.17,4.17,0,0,0,4.29-.35c.73-.53,1.53-1,2.24-1.49.46-.35.74-.25,1.15.06,1,.77,2,1.53,3.1,2.2,2.36,1.47,4.74,2,7.33.32,1.31-.82,2.62-1.65,3.89-2.52a1.34,1.34,0,0,1,1.81,0c3.06,2.08,6.17,2.33,9.34.15,2.55-1.76,5.15-3.46,7.74-5.17a5.1,5.1,0,0,0,2.23-3.51,18.69,18.69,0,0,0-.68-8.34,74.74,74.74,0,0,0-6.63-15.73c-.34-.63-.37-.95.31-1.33,1-.54,1.85-1.19,2.78-1.79l14.92-9.7a9.94,9.94,0,0,0-1.92-1.77c0-.25-.13-.35-.37-.32-.72-1.46-1.89-2.67-2.39-4.24-.3-1-.68-.89-1.43-.4q-11.15,7.32-22.34,14.56c-2.26,1.47-2.28,1.44-1,3.58-.15,0-.2.09-.19.23a13.56,13.56,0,0,1-3.21-5.21l.52-.3a4.32,4.32,0,0,0,.53-.26q12.51-8.11,25-16.24C250.51,428.72,250.21,427.92,249.84,427.05Z" transform="translate(-181.71 -289.45)"/><path d="M384.06,427.07c-.89-.4-1.08-1.22-1.27-2.06-.15-.67-.32-1.33-.54-2.25l5.39,3.49c5.44,3.53,10.89,7.05,16.31,10.61.77.5,1.15.6,1.82-.25,3.66-4.72,7.51-9.27,12.31-12.9a17,17,0,0,1,6.22-3.32,5.22,5.22,0,0,1,4.15.4q4.37,2.73,8.66,5.55a6.77,6.77,0,0,1,3.12,7.4,2.25,2.25,0,0,0,1.34,2.84c1.09.54,2,1.36,3.12,1.93,2.37,1.28,3,3.36,2.95,5.86a20.3,20.3,0,0,1-.76,4.58,1.13,1.13,0,0,0,.68,1.56c.22.1.4.28.61.4,3.47,1.89,4,3.22,3.07,7.76a38,38,0,0,1-4.69,11.24c-3.28,5.64-7,10.95-12,15.17a17.74,17.74,0,0,1-2.19,1.56c-2.13,1.32-4.19,1.49-6.35-.13-2-1.5-2.05-1.4-4,.05-.23.17-.46.34-.7.5-4,2.69-6.09,2.77-10-.07-2-1.42-3.52-2.26-5.93-.6-2.62,1.79-5.33.59-7.76-1s-4.51-3.11-6.84-4.53a6.14,6.14,0,0,1-3-5.4c-.17-3.79.89-7.33,2.13-10.85a81.15,81.15,0,0,1,5.27-11.54c.44-.83.36-1.17-.42-1.67-5.4-3.46-10.75-7-16.12-10.47l-1.34-.9a8.35,8.35,0,0,1,1.9-2l11,7.24,12.91,8.41c.48.31.92.71,1.53.2a7.28,7.28,0,0,0,2.19-2.23,13.46,13.46,0,0,0,3.11-4.92c1-2.23,1-2.36-1-3.62q-6-3.93-12.11-7.86Zm61.45,26.53-2.9,6.59-5,8.64c-1.37,1.92-2.74,3.84-4.12,5.74a61.31,61.31,0,0,1-7.26,8.41c-.21.21-.54.36-.16.77,1.61,1.74,3.29,2.06,5.25.7a39.3,39.3,0,0,0,11-12.1,51.86,51.86,0,0,0,5.08-9.42,20.21,20.21,0,0,0,2-6.58c.23-1.8-.87-2.71-2.28-3.46S445.87,452.2,445.51,453.6ZM439,440.4a99.81,99.81,0,0,1-4.17,10.48c-1.78,3.54-3.75,7-5.77,10.38-1.3,1.92-2.57,3.85-3.92,5.73a85.07,85.07,0,0,1-14.89,16.51c1.32.87,2.62,1.64,3.82,2.54a3.32,3.32,0,0,0,3.67.26,22.16,22.16,0,0,0,5.07-3.37,55.25,55.25,0,0,0,8.38-9,58.1,58.1,0,0,0,5.53-8.18,63.18,63.18,0,0,0,6.53-13.08,25.76,25.76,0,0,0,1-2.61c.52-2,1.32-4,1.05-6.16a2.92,2.92,0,0,0-1.6-3.24c-.65-.34-1.23-.79-1.84-1.19C439,437.55,439.79,437.79,439,440.4Zm-9.5,15.47a61.16,61.16,0,0,0,4.11-7.91,52.84,52.84,0,0,0,4.44-13.15c.37-2.29.22-4.49-1.71-6.19a39.7,39.7,0,0,0-5.38-3.44c0,.81,0,1.5,0,2.18a36.32,36.32,0,0,1-2.68,11A101.7,101.7,0,0,1,422,451.44l-2.52,4a105.7,105.7,0,0,1-14.25,18.17A29.88,29.88,0,0,1,395,480.81c1.79,1.21,3.37,2.43,5.12,3.4a4.3,4.3,0,0,0,3.87.25,17.22,17.22,0,0,0,4.21-2.41,63.15,63.15,0,0,0,10.37-10.17A102.07,102.07,0,0,0,429.52,455.87Zm-13.94-4,.19.17c-.16.28-.29.58-.47.85-4.66,7-9.69,13.7-16.19,19.15a17,17,0,0,1-3.95,2.09c-2.2.6-3.52-.26-3.67-2.54a13.54,13.54,0,0,1,.69-4.93,68.94,68.94,0,0,1,5.42-12.39c.15-.27.53-.6-.05-.92a6.92,6.92,0,0,0-.39.61,68.61,68.61,0,0,0-6.07,14.48,21.23,21.23,0,0,0-1,7.59c.16,1.7,1.41,3.34,3.62,2.62,3.91-1.27,6.88-3.86,9.63-6.78a12.33,12.33,0,0,0,1.32-1,102.1,102.1,0,0,0,22.51-36.64c1.05-3,1.86-6,1.39-9.23a2.55,2.55,0,0,0-3.49-2.34,13.09,13.09,0,0,0-4.27,2.06c-5.3,3.67-9.48,8.46-13.45,13.47-.46.59-.24.79.26,1.1,1.31.82,2.58,1.72,3.9,2.52a3.05,3.05,0,0,1,1.5,3.44,17.28,17.28,0,0,1-3.28,7.16,12.76,12.76,0,0,1-4.41,4.17,2.73,2.73,0,0,1-3.1-.16c-.88-.66-1.86-1.19-2.77-1.81-.44-.3-.64-.21-.74.3a14.27,14.27,0,0,0-.24,4.87c.38,2.63,2.14,3.66,4.69,2.82a14.69,14.69,0,0,0,4.68-2.84A68.78,68.78,0,0,0,415.58,451.86Z" transform="translate(-181.71 -289.45)"/><path d="M254.26,438a9.94,9.94,0,0,1,1.92,1.77l-14.92,9.7c-.93.6-1.82,1.25-2.78,1.79-.68.38-.65.7-.31,1.33a74.74,74.74,0,0,1,6.63,15.73,18.69,18.69,0,0,1,.68,8.34,5.1,5.1,0,0,1-2.23,3.51c-2.59,1.71-5.19,3.41-7.74,5.17-3.17,2.18-6.28,1.93-9.34-.15a1.34,1.34,0,0,0-1.81,0c-1.27.87-2.58,1.7-3.89,2.52-2.59,1.64-5,1.15-7.33-.32-1.08-.67-2.09-1.43-3.1-2.2-.41-.31-.69-.41-1.15-.06-.71.54-1.51,1-2.24,1.49a4.17,4.17,0,0,1-4.29.35,18,18,0,0,1-6.39-4.85A60.18,60.18,0,0,1,182.49,460a13.54,13.54,0,0,1-.73-5.06,4.06,4.06,0,0,1,2.16-3.47c.91-.53,2.09-1,2.54-1.82s-.32-2-.49-3.05a14.08,14.08,0,0,1-.13-4.39,4.63,4.63,0,0,1,2.19-3.5c1.53-1,3-2,4.53-2.93a1.07,1.07,0,0,0,.63-1.26,14,14,0,0,1-.2-1.71,7,7,0,0,1,3.34-6.76c2.75-1.82,5.53-3.63,8.35-5.35,2.49-1.52,4.92-.66,7.18.58,5.56,3,9.66,7.73,13.67,12.48.76.91,1.53,1.82,2.2,2.79.46.67.8.66,1.45.23q10.29-6.74,20.62-13.42a6.38,6.38,0,0,1,1.22-.65c-.64,1.22-.34,2.73-1.29,3.83-.25.14-.5.27-.74.43L224.28,443c-1.73,1.13-1.75,1.18-.92,3.2a13.52,13.52,0,0,0,3.21,5.22c.31.79,1.05,1.21,1.61,1.78a1.53,1.53,0,0,0,2.25.19q8.31-5.5,16.71-10.89A82,82,0,0,1,254.26,438Zm-63.61,21.69c0-.06,0-.1-.08-.11l-2.63-6.09c-.26-.47-.05-1.42-.85-1.32a4,4,0,0,0-3.15,3.92,18.68,18.68,0,0,0,1.92,6.36,51.74,51.74,0,0,0,4.76,9.09,45.81,45.81,0,0,0,7.74,9.68,17.63,17.63,0,0,0,5,3.69c.48.22.95.47,1.5.1.9-.62,1.83-1.19,2.79-1.82a74.23,74.23,0,0,1-10.36-12.43,5.11,5.11,0,0,0-1.32-1.71l-5.23-9.14Zm6.45,6.58a70.4,70.4,0,0,0,13,16,23.38,23.38,0,0,0,5.32,3.65c1,.48,2.08.91,3.15.27,1.53-.92,3-1.94,4.57-3a77.65,77.65,0,0,1-12.6-13.36c-2.1-2.71-4-5.58-5.9-8.4-.72-1.19-1.46-2.36-2.15-3.56-3.53-6.12-6.69-12.41-8.5-19.28-.21-.78-.44-.82-1-.41a15.63,15.63,0,0,1-2.37,1.52c-2.56,1.12-2.85,3.19-2.48,5.58.09.6.2,1.2.35,1.8A64.48,64.48,0,0,0,197.1,466.27Zm6.9-10.41c5.17,9.1,11.22,17.51,19.25,24.34a25.71,25.71,0,0,0,5.45,3.71,4.61,4.61,0,0,0,4.86-.17l4.73-3.11c-.51-.55-1.16-.58-1.68-.86a37.82,37.82,0,0,1-9.83-7.88,108.32,108.32,0,0,1-8.28-10c-2.45-3.32-4.62-6.82-6.83-10.29a2.7,2.7,0,0,1-.48-.54c-1.49-3-3.05-5.93-4.42-9-2.44-5.43-4.61-11-4.4-17.17a37.14,37.14,0,0,0-5.19,3.25,5.2,5.2,0,0,0-2,3.78,13.63,13.63,0,0,0,.38,4.12,76.23,76.23,0,0,0,7.4,18C203.29,454.7,203.39,455.44,204,455.86ZM217.36,451a59.57,59.57,0,0,0,8.91,9.05,11.58,11.58,0,0,0,4.63,2.39,2.92,2.92,0,0,0,3.7-2.12,12.15,12.15,0,0,0,0-5.81c-.1-.55-.37-.49-.77-.22-.87.6-1.81,1.11-2.67,1.73a2.69,2.69,0,0,1-3.3.09,17.2,17.2,0,0,1-7.6-11.76,2.62,2.62,0,0,1,1.38-2.78c1.43-.88,2.81-1.82,4.21-2.73.4-.25.56-.42.18-.91a70.94,70.94,0,0,0-11.15-11.82,17.19,17.19,0,0,0-6.4-3.73c-2.19-.58-3.48.24-3.75,2.51-.44,3.6.6,7,1.83,10.26A104.39,104.39,0,0,0,227.19,469a12.15,12.15,0,0,0,2.65,2.51,18.33,18.33,0,0,0,3.29,3.06c2,1.57,4,3.16,6.48,3.78,2,.49,3.3-.36,3.57-2.37a13.55,13.55,0,0,0-.11-4.26A58.65,58.65,0,0,0,237.41,456c-.43-.88-.91-1.73-1.37-2.59-.07-.13-.15-.33-.35-.25s-.26.28-.15.5.26.5.4.75a65.19,65.19,0,0,1,4.51,9.88c.8,2.33,1.67,4.66,1.4,7.21-.22,2.13-1.49,3-3.57,2.41a13.38,13.38,0,0,1-4.12-2.27A61,61,0,0,1,224.05,461a84.24,84.24,0,0,1-6.83-9.81Z" transform="translate(-181.71 -289.45)"/><path class="cls-2" d="M411,330.23a7,7,0,0,0-2.23-3.74,7.5,7.5,0,0,0-1.65-1.58.85.85,0,0,0-1.1-.05c-4.29,2.85-8.61,5.68-12.92,8.51-.73-.6-.57-1.55-.87-2.31-.17-.41.32-.49.57-.65,1.47-1,2.92-2,4.41-2.87.7-.42.81-.75.4-1.51A71.93,71.93,0,0,1,391,310.3c-.78-3-1.34-6-.43-9.05a4.82,4.82,0,0,1,2.09-2.76c2.39-1.56,4.79-3.11,7.11-4.77,3.32-2.38,6.62-2.45,10-.16a1.16,1.16,0,0,0,1.6,0c1.57-1.1,3.2-2.13,4.83-3.12a4.94,4.94,0,0,1,4.58-.05,17.44,17.44,0,0,1,4.9,3c.52.44.9.53,1.45.05s1.13-.66,1.63-1.08c1.81-1.5,3.66-1.29,5.59-.28a20.42,20.42,0,0,1,5.5,4.44c6.13,6.69,11,14.13,13.69,22.91a13.42,13.42,0,0,1,.58,3.49,4.34,4.34,0,0,1-2.14,4.35c-.94.54-2.22.93-2.61,1.9s.38,2,.58,3.06c.89,4.42,0,6.53-3.82,9-.92.6-1.84,1.22-2.8,1.75a1.16,1.16,0,0,0-.66,1.37,19.91,19.91,0,0,1,.21,2.44,6.25,6.25,0,0,1-2.53,5.31,82,82,0,0,1-9.67,6.22c-2.33,1.33-4.7.3-6.85-.89-4.21-2.32-7.57-5.66-10.74-9.2-1.76-2-3.42-4.05-5.07-6.13-.45-.57-.72-.49-1.24-.15-3.78,2.49-7.59,4.94-11.39,7.41a2.48,2.48,0,0,1-1.2.55c.08-1.12.14-2.16.21-3.2a.42.42,0,0,0,.12,0l18-11.62a.9.9,0,0,0,.49-.65,6.43,6.43,0,0,0-2-4.17Zm9.67-37.35c-1-.61-2.12-1.09-3.2-.51-1.69.92-3.27,2.05-4.91,3.1l1.85,1.45,2.22,2.06c2.1,1.92,3.88,4.14,5.85,6.18,2.58,3.22,5,6.55,7.39,9.92.39.67.76,1.34,1.17,2,4.62,7.23,8.65,14.75,10.89,23.1.21.75.48.57.91.28a18.11,18.11,0,0,1,2.48-1.57c2.36-1,2.7-3,2.4-5.17a27.3,27.3,0,0,0-.61-3.12,62.13,62.13,0,0,0-5.94-14.15,55.21,55.21,0,0,0-5.34-8.29,53.43,53.43,0,0,0-6.16-7.68c0-.14-.07-.22-.21-.21l-.29-.41c-.61-.64-1.19-1.32-1.84-1.93A25.61,25.61,0,0,0,420.69,292.88Zm19.57,17.51c3.11,5.2,6.23,10.4,8.15,16.2,3.09-1.3,3.81-2.31,3.21-5a40.13,40.13,0,0,0-6-13.67c-.16-.23-.33-.46-.47-.7a46.06,46.06,0,0,0-9.85-11.72c-3.49-3-4-2.31-6.91-.17a2,2,0,0,0-.21.24A83,83,0,0,1,440.26,310.39Zm-22.32,7.13c.27.41.52.82.8,1.22a104.13,104.13,0,0,1,12.06,21.91c1.59,4.16,2.93,8.39,2.72,13.07a46.41,46.41,0,0,0,5.55-3.62,4,4,0,0,0,1.44-3,21.8,21.8,0,0,0-.9-6.52c-1.93-7-5.21-13.48-8.87-19.74a65.15,65.15,0,0,0-5.35-8,6.53,6.53,0,0,1-.55-.63,60.49,60.49,0,0,0-7.52-9.21,33.16,33.16,0,0,0-4.09-4.12,17.31,17.31,0,0,0-4.62-3.43,6.71,6.71,0,0,1-1.1-.46,4.86,4.86,0,0,0-5.28-.06,55.66,55.66,0,0,0-4.9,3.32c3.89,1.37,6.84,3.86,9.67,6.51A90.22,90.22,0,0,1,417.94,317.52Zm5.74,13.74a5.4,5.4,0,0,0-.25-.67,95.83,95.83,0,0,0-8.93-13.73,78.63,78.63,0,0,0-11.85-12.81c-1.94-1.62-3.95-3.19-6.5-3.78-2-.46-3.25.39-3.54,2.43a12.5,12.5,0,0,0,.07,3.91c1.13,6.6,3.88,12.59,7,18.45.3.56.53.56,1,.23,1.17-.81,2.39-1.56,3.58-2.34,2.07-1.35,2.88-1.41,4.82.18a19.44,19.44,0,0,1,6.56,10.37c.45,1.68,0,2.64-1.49,3.64l-3.23,2.18a12.55,12.55,0,0,0,5.83,2.76,2.9,2.9,0,0,0,3.32-2.22,8.13,8.13,0,0,0,.16-3.15,34.45,34.45,0,0,0-2.74-9.09c-.56-1.34-1.16-2.67-1.77-4.08.68,0,.78.51,1,.83,1,1.6,2,3.2,2.91,4.82a91.59,91.59,0,0,1,6.49,13.55,20.61,20.61,0,0,1,1.43,7.88c-.15,2.34-1.45,3.22-3.72,2.6A10.71,10.71,0,0,1,420,351a56.11,56.11,0,0,1-9.61-10.4c-.19-.25-.34-.85-.78-.49s.15.56.32.77a75.77,75.77,0,0,0,11.76,12.25,15.53,15.53,0,0,0,5.51,3.09c2.18.61,3.61-.3,3.87-2.56a13.55,13.55,0,0,0-.1-3.54,52.17,52.17,0,0,0-4.58-13.76A26.34,26.34,0,0,0,423.68,331.26Z" transform="translate(-181.71 -289.45)"/><path d="M241.48,346.66l.18,3.23a2.89,2.89,0,0,1-1.43-.71c-3.71-2.39-7.41-4.78-11.08-7.22-.64-.42-1-.38-1.42.23a69.39,69.39,0,0,1-12.17,12.87c-2.24,1.72-4.57,3.32-7.48,3.72a4.63,4.63,0,0,1-3.18-.58c-2.84-1.78-5.63-3.63-8.47-5.4-3-1.87-3.77-4.65-3.32-7.93.13-1,.07-1.63-.94-2.15a29.6,29.6,0,0,1-3.61-2.28,6.65,6.65,0,0,1-2.75-7.57c.12-.47.17-1,.28-1.44.55-2.41.59-2.48-1.46-3.68-2.88-1.67-3.36-3.17-2.59-7.1a36.61,36.61,0,0,1,4.48-11.07c3.35-5.88,7.17-11.4,12.44-15.77a20.88,20.88,0,0,1,2.11-1.47c2.09-1.31,4.16-1.56,6.22.12.66.53,1.44,1.3,2.16,1.28s1.36-.91,2.07-1.38a13,13,0,0,1,5.41-2.44,4.21,4.21,0,0,1,2.9.65c1.62,1,3.25,2.06,4.83,3.14a.84.84,0,0,0,1.17,0,6.48,6.48,0,0,1,.84-.51c3.08-2,6.08-1.71,9,.28,2.54,1.71,5.1,3.38,7.63,5.1a5.74,5.74,0,0,1,2.33,4.77c.23,3.79-.82,7.35-2.06,10.86a83.71,83.71,0,0,1-5.49,12c-.34.62-.2.89.35,1.23,1.43.88,2.77,1.89,4.23,2.71a1.24,1.24,0,0,1,.68,1.83c-.19.44-.3.93-.45,1.39-4-2.61-8.07-5.21-12.1-7.84-1.69-1.11-1.79-1.13-3.23.34a2.76,2.76,0,0,0-.28.39,12.54,12.54,0,0,0-3,4.23,11.49,11.49,0,0,0-1.33,3,1.34,1.34,0,0,0,.69,1.81c4.33,2.76,8.6,5.62,12.94,8.37A35.3,35.3,0,0,0,241.48,346.66Zm-19.8-50,1.55-1.18a43.9,43.9,0,0,1-3.7-2.44,3.5,3.5,0,0,0-4.37-.19,30.71,30.71,0,0,0-9,7.59,64.68,64.68,0,0,0-6.89,8.68,67.69,67.69,0,0,0-6.36,10.67,46.37,46.37,0,0,0-4.84,14c-.18,1.33-.32,2.86.75,3.81a38.51,38.51,0,0,0,4.36,2.92c.38.25.57.18.68-.26.22-.86.46-1.71.72-2.56a74.81,74.81,0,0,1,4.18-10.16c2.12-4.45,4.86-8.55,7.39-12.77,2.55-3.61,5.14-7.18,8-10.56C216.56,301.63,219,299,221.68,296.67ZM202.51,294l-.26.17a19.78,19.78,0,0,0-5.34,4.81,58.84,58.84,0,0,0-11.77,19.17,16.13,16.13,0,0,0-1.06,5,2,2,0,0,0,1.11,2.11,7.82,7.82,0,0,1,1.42.95c.61.47.92.24,1.11-.4a33.82,33.82,0,0,1,1.58-4,122.12,122.12,0,0,1,6.57-12c2.08-3,4.22-6,6.5-8.81l3.8-4.2,1.55-1.41c-.79-.54-1.46-1.05-2.18-1.48a2.26,2.26,0,0,0-2.6-.11Zm24.91,1.27a2.32,2.32,0,0,0-1.07.54,47.22,47.22,0,0,0-7.83,7.12,74.13,74.13,0,0,0-7.92,9.66,87.16,87.16,0,0,0-8.23,13.14c-3.21,6.19-6.13,12.49-7.06,19.51a5.08,5.08,0,0,0,1.73,5,54,54,0,0,0,5.3,3.4,17.24,17.24,0,0,1,.28-4.64c1.51-8.1,5.18-15.31,9.32-22.31,1.9-3.23,4-6.31,6.06-9.46,2.16-2.77,4.26-5.59,6.6-8.22.4-.44,1-.78,1.05-1.44a.4.4,0,0,0,.43-.13,79,79,0,0,1,6.34-5.94,24,24,0,0,1,6.1-3.37c-1.76-1.13-3.2-2.4-4.9-3.31A5.76,5.76,0,0,0,227.42,295.31ZM212.53,330.5c-.07.05-.16.08-.19.14a74.39,74.39,0,0,0-6.82,16.2,18.62,18.62,0,0,0-.78,6.77c.22,2.28,1.59,3.23,3.79,2.64a13.08,13.08,0,0,0,3.93-1.93,53.14,53.14,0,0,0,9.77-9.06,56.32,56.32,0,0,0,3.85-4.59c.14-.21.38-.4.06-.6s-.36.09-.49.25-.35.45-.52.68a60,60,0,0,1-7.17,8.18,17.17,17.17,0,0,1-5.58,3.91c-2.48.91-3.88,0-4-2.64a20.88,20.88,0,0,1,1.72-8.43c2.93-7.16,8.93-18.26,10.67-19.69a2.3,2.3,0,0,1-.13.52,50.82,50.82,0,0,0-3.81,8.92c-.82,2.55-1.64,5.14-1,7.9a2.85,2.85,0,0,0,3,2.44c2.35-.17,4.23-1.41,6.18-2.8l-3.11-2c-1.69-1.08-2.07-2.07-1.58-4a19.14,19.14,0,0,1,3.49-7,13.27,13.27,0,0,1,3.93-3.79,2.79,2.79,0,0,1,3.3.08c1.55,1.09,3.17,2.06,4.82,3.11a71.23,71.23,0,0,0,6.6-15.71,19.3,19.3,0,0,0,.8-7.13c-.25-2.14-1.46-3.06-3.53-2.56-3.09.75-5.43,2.76-7.71,4.79a88.27,88.27,0,0,0-13.28,15.34A66.45,66.45,0,0,0,212.53,330.5Z" transform="translate(-181.71 -289.45)"/><path d="M379.29,437.73a49,49,0,0,0,2.93-4.6c.29-.64.69,0,.95.14,2.68,1.72,5.33,3.47,8,5.2l15.37,10c1.47,1,1.46.94.41,2.4-.13.18-.38.31-.31.61-.54.49-1.1,1-1.6,1.49-.67.69-1.22.69-2.07.12C395.1,447.93,387.19,442.84,379.29,437.73Z" transform="translate(-181.71 -289.45)"/><path d="M226.76,451.18c-1.31-2.14-1.29-2.11,1-3.58q11.19-7.26,22.34-14.56c.75-.49,1.13-.57,1.43.4.5,1.57,1.67,2.78,2.39,4.24-.33-.05-.52.2-.75.35q-11.49,7.44-22.95,14.9c-.66.42-1.11.52-1.67-.08S227.35,451.73,226.76,451.18Z" transform="translate(-181.71 -289.45)"/><path class="cls-2" d="M394.3,346.09c-.09-1.92-.17-3.83-.31-5.75a1.16,1.16,0,0,1,.62-1.19c4.69-3,9.38-6,14-9.14.94-.62,1.67-.93,2.37.22l0,0c.44,1.06.87,2.14,1.33,3.2a1,1,0,0,1-.48,1.49c-4.59,2.93-9.14,5.94-13.73,8.87A16.52,16.52,0,0,1,394.3,346.09Z" transform="translate(-181.71 -289.45)"/><path d="M224.58,330.75c1.22-1.61,1.23-1.62,3-.47q6.79,4.43,13.61,8.85a1.24,1.24,0,0,1,.64,1.29,45.28,45.28,0,0,0-.32,5.58c-.32.19-.54-.07-.76-.22-5.63-3.66-11.26-7.35-16.91-11a.84.84,0,0,1-.38-1.21Z" transform="translate(-181.71 -289.45)"/><path d="M249.84,427.05c.37.87.67,1.67-.39,2.35q-12.52,8.1-25,16.24a4.32,4.32,0,0,1-.53.26c-.57-1.13-.26-1.82.85-2.51,3.64-2.25,7.2-4.63,10.79-7Z" transform="translate(-181.71 -289.45)"/><path d="M409.28,446.19,387.5,432c-1.23-.8-2.44-1.61-3.68-2.4-.93-.59-.58-1.42-.44-2.22l.35,0c.52.38,1,.78,1.57,1.13q11.77,7.67,23.58,15.3C410,444.59,410,445.26,409.28,446.19Z" transform="translate(-181.71 -289.45)"/><path class="cls-2" d="M407.83,326.49l-14.38,9.32c-.15-.71-.5-1.26-.3-1.89.25-.14.51-.25.74-.41,3.9-2.51,7.83-5,11.66-7.59C406.75,325.11,407.25,325.58,407.83,326.49Z" transform="translate(-181.71 -289.45)"/><path d="M242.68,333.89c.25.64-.18,1.19-.21,2L228,326.53c1-1.38,1-1.39,2.32-.52.9.57,1.78,1.16,2.68,1.72C236.27,329.75,239.36,332,242.68,333.89Z" transform="translate(-181.71 -289.45)"/><path class="cls-1" d="M249.84,427.05l-14.32,9.38c-3.59,2.33-7.15,4.71-10.79,7-1.11.69-1.42,1.38-.85,2.51l-.52.29c-.83-2-.81-2.07.92-3.2L249,426.92c.24-.16.49-.29.74-.43C249.76,426.68,249.8,426.87,249.84,427.05Z" transform="translate(-181.71 -289.45)"/><path class="cls-1" d="M409.28,446.19c.76-.93.73-1.6-.4-2.32q-11.82-7.61-23.58-15.3c-.54-.35-1.05-.75-1.57-1.13l.33-.37,12.75,8.21q6.06,3.92,12.11,7.86c1.93,1.26,2,1.39,1,3.62C409.52,446.75,409.24,446.64,409.28,446.19Z" transform="translate(-181.71 -289.45)"/><path class="cls-1" d="M379.29,437.73c7.9,5.11,15.81,10.2,23.68,15.35.85.57,1.4.57,2.07-.12.5-.53,1.06-1,1.6-1.49l.14.21a7.28,7.28,0,0,1-2.19,2.23c-.61.51-1,.11-1.53-.2l-12.91-8.41-11-7.24C379.05,437.88,379.1,437.76,379.29,437.73Z" transform="translate(-181.71 -289.45)"/><path class="cls-1" d="M226.76,451.18c.59.55,1.21,1.08,1.76,1.67s1,.5,1.67.08q11.46-7.49,22.95-14.9c.23-.15.42-.4.75-.35s.37.07.37.32a82,82,0,0,0-7.12,4.49q-8.4,5.38-16.71,10.89a1.53,1.53,0,0,1-2.25-.19c-.56-.57-1.3-1-1.61-1.78C226.56,451.27,226.61,451.19,226.76,451.18Z" transform="translate(-181.71 -289.45)"/><path class="cls-1" d="M394.3,346.09a16.52,16.52,0,0,0,3.82-2.32c4.59-2.93,9.14-5.94,13.73-8.87a1,1,0,0,0,.48-1.49c-.46-1.06-.89-2.14-1.33-3.2a6.43,6.43,0,0,1,2,4.17.9.9,0,0,1-.49.65l-18,11.62a.42.42,0,0,1-.12,0Z" transform="translate(-181.71 -289.45)"/><path class="cls-1" d="M224.58,330.75l-1.11,2.83a.84.84,0,0,0,.38,1.21c5.65,3.64,11.28,7.33,16.91,11,.22.15.44.41.76.22,0,.22,0,.44,0,.66a35.3,35.3,0,0,1-4.87-3c-4.34-2.75-8.61-5.61-12.94-8.37a1.34,1.34,0,0,1-.69-1.81,11.49,11.49,0,0,1,1.33-3Z" transform="translate(-181.71 -289.45)"/><path class="cls-1" d="M242.68,333.89c-3.32-1.88-6.41-4.14-9.65-6.16-.9-.56-1.78-1.15-2.68-1.72-1.35-.87-1.35-.86-2.32.52l-.71-.27a2.76,2.76,0,0,1,.28-.39c1.44-1.47,1.54-1.45,3.23-.34,4,2.63,8.07,5.23,12.1,7.84C242.94,333.59,242.91,333.79,242.68,333.89Z" transform="translate(-181.71 -289.45)"/><path class="cls-1" d="M407.83,326.49c-.58-.91-1.08-1.38-2.28-.57-3.83,2.62-7.76,5.08-11.66,7.59-.23.16-.49.27-.74.41l0-.55c4.31-2.83,8.63-5.66,12.92-8.51a.85.85,0,0,1,1.1.05,7.5,7.5,0,0,1,1.65,1.58Z" transform="translate(-181.71 -289.45)"/><path class="cls-1" d="M399.11,472c6.5-5.45,11.53-12.15,16.19-19.15.18-.27.31-.57.47-.85,0-.1.08-.25,0-.29s-.19,0-.23.12a68.78,68.78,0,0,1-7.7,7.85,14.69,14.69,0,0,1-4.68,2.84c-2.55.84-4.31-.19-4.69-2.82a14.27,14.27,0,0,1,.24-4.87c.1-.51.3-.6.74-.3.91.62,1.89,1.15,2.77,1.81a2.73,2.73,0,0,0,3.1.16,12.76,12.76,0,0,0,4.41-4.17,17.28,17.28,0,0,0,3.28-7.16,3.05,3.05,0,0,0-1.5-3.44c-1.32-.8-2.59-1.7-3.9-2.52-.5-.31-.72-.51-.26-1.1,4-5,8.15-9.8,13.45-13.47a13.09,13.09,0,0,1,4.27-2.06A2.55,2.55,0,0,1,428.6,425c.47,3.21-.34,6.26-1.39,9.23a102.1,102.1,0,0,1-22.51,36.64,12.33,12.33,0,0,1-1.32,1C401.94,471.53,400.54,472.21,399.11,472ZM424,432.62a12,12,0,0,0,2.16-5.13c.17-1.73-.82-2.55-2.46-2.13a11.43,11.43,0,0,0-5.78,4.78c1.83-.73,3.18-2.05,4.78-3,.58-.34,1.24-1,1.87-.63s.24,1.34.19,2c-.1,1.37-.89,2.61-.73,4H424Z" transform="translate(-181.71 -289.45)"/><path class="cls-1" d="M422,451.44a101.7,101.7,0,0,0,6.34-13.08,36.32,36.32,0,0,0,2.68-11c0-.68,0-1.37,0-2.18a39.7,39.7,0,0,1,5.38,3.44c1.93,1.7,2.08,3.9,1.71,6.19A52.84,52.84,0,0,1,433.63,448a61.16,61.16,0,0,1-4.11,7.91l-.88,0-5.59-3.52c-.32-.2-.63-.6-1.05-.15Zm15.41-16.93a.77.77,0,0,0-.41-1c-1.65-1.06-3.3-2.11-4.93-3.21-.52-.35-.77-.31-.87.33a45.68,45.68,0,0,1-2.85,9.21c-.2.5-.23.81.26,1.12,1.79,1.13,3.58,2.26,5.34,3.45.48.32.65.11.79-.26A44.53,44.53,0,0,0,437.36,434.51Z" transform="translate(-181.71 -289.45)"/><path class="cls-1" d="M443.27,452.63a63.18,63.18,0,0,1-6.53,13.08l-1,0-6.1-3.89-.52-.59c2-3.4,4-6.84,5.77-10.37.41.39.67.22.85-.24l4.59,3c1.66,1.08,1.66,1.08,2.4-.75Z" transform="translate(-181.71 -289.45)"/><path class="cls-1" d="M422,451.44c0,.26,0,.53.05.79a30.57,30.57,0,0,1-2.62,4.4c-5.17,7.86-10.75,15.38-18.3,21.18-.57.44-.52.69,0,1,1.71,1.09,3.43,2.17,5.11,3.31.45.3.71.14,1.07-.1a43.32,43.32,0,0,0,6.84-6.06,104.67,104.67,0,0,0,13-17.1,7.24,7.24,0,0,0,1.55-3l.88,0a102.07,102.07,0,0,1-10.95,16,63.15,63.15,0,0,1-10.37,10.17,17.22,17.22,0,0,1-4.21,2.41,4.3,4.3,0,0,1-3.87-.25c-1.75-1-3.33-2.19-5.12-3.4a29.88,29.88,0,0,0,10.18-7.19,105.7,105.7,0,0,0,14.25-18.17Z" transform="translate(-181.71 -289.45)"/><path class="cls-1" d="M437.64,468.83l5-8.64.64,0c1.3.68,2.35,1.79,3.81,2.19.24.09,0,.54.37.52a51.86,51.86,0,0,1-5.08,9.42l-.66,0-4-2.51Z" transform="translate(-181.71 -289.45)"/><path class="cls-1" d="M399.11,472c1.43.18,2.83-.5,4.27-.17-2.75,2.92-5.72,5.51-9.63,6.78-2.21.72-3.46-.92-3.62-2.62a21.23,21.23,0,0,1,1-7.59A68.61,68.61,0,0,1,397.16,454a6.92,6.92,0,0,1,.39-.61c.58.32.2.65.05.92a68.94,68.94,0,0,0-5.42,12.39,13.54,13.54,0,0,0-.69,4.93c.15,2.28,1.47,3.14,3.67,2.54A17,17,0,0,0,399.11,472Z" transform="translate(-181.71 -289.45)"/><path class="cls-1" d="M429.08,461.26l.52.59c-.47,0-.55.43-.74.73q-2.58,4-5.48,7.81A74.67,74.67,0,0,1,413.92,481c-.5.44-.66.73.06,1.14,1,.56,1.91,1.26,2.88,1.85,2.28,1.39,2.29,1.37,4.36-.35l.27-.25c5.59-4.7,9.95-10.43,13.92-16.5.21-.32.55-.64.29-1.1l1,0a58.1,58.1,0,0,1-5.53,8.18,55.25,55.25,0,0,1-8.38,9,22.16,22.16,0,0,1-5.07,3.37,3.32,3.32,0,0,1-3.67-.26c-1.2-.9-2.5-1.67-3.82-2.54A85.07,85.07,0,0,0,425.16,467C426.51,465.11,427.78,463.18,429.08,461.26Z" transform="translate(-181.71 -289.45)"/><path class="cls-1" d="M441.69,472.31l.66,0a39.3,39.3,0,0,1-11,12.1c-2,1.36-3.64,1-5.25-.7-.38-.41-.05-.56.16-.77a61.31,61.31,0,0,0,7.26-8.41c1.38-1.9,2.75-3.82,4.12-5.74l0,1a95.19,95.19,0,0,1-7,9.24c-.63.71-1.89,1.39-1.67,2.2s1.51,1.1,2.27,1.71,1,.36,1.58-.11A47.3,47.3,0,0,0,441.69,472.31Z" transform="translate(-181.71 -289.45)"/><path class="cls-1" d="M439,440.4c.77-2.61,0-2.85,2.84-1,.61.4,1.19.85,1.84,1.19a2.92,2.92,0,0,1,1.6,3.24c-.46.66-1.26-.26-1.72.38l-.48-.3a.89.89,0,0,0-.53-1.12,4.32,4.32,0,0,1-2.28-2.95C439.91,440.85,439.91,440.85,439,440.4Z" transform="translate(-181.71 -289.45)"/><path class="cls-1" d="M439,440.4c.89.45.89.45,1.27-.53a4.32,4.32,0,0,0,2.28,2.95.89.89,0,0,1,.53,1.12l-3.78-2.37c-.75,1.92-1.49,3.76-2.2,5.61a25,25,0,0,0-1.42,3.47c-.18.46-.44.63-.85.24A100.85,100.85,0,0,0,439,440.4Z" transform="translate(-181.71 -289.45)"/><path class="cls-1" d="M445.51,453.6c.36-1.4.35-1.38,1.62-.71s2.51,1.66,2.28,3.46l-.83.2-.37-.26c.11-.54-.25-.76-.64-1A8.18,8.18,0,0,1,445.51,453.6Z" transform="translate(-181.71 -289.45)"/><path class="cls-1" d="M443.58,444.24c.46-.64,1.26.28,1.72-.38.27,2.16-.53,4.14-1.05,6.16a25.76,25.76,0,0,1-1,2.61l-.58.22c.61-2,1.34-4,1.77-6C444.68,445.72,444.7,444.82,443.58,444.24Z" transform="translate(-181.71 -289.45)"/><path class="cls-1" d="M445.51,453.6a8.18,8.18,0,0,0,2.06,1.65c.39.28.75.5.64,1-.69-.4-1.39-.8-2.07-1.23-.33-.21-.54-.28-.73.16-.71,1.68-1.44,3.34-2.16,5l-.64,0Z" transform="translate(-181.71 -289.45)"/><path class="cls-1" d="M448.58,456.55l.83-.2a20.21,20.21,0,0,1-2,6.58c-.4,0-.13-.43-.38-.52.12-.3.25-.59.34-.89C447.89,459.89,448.76,458.34,448.58,456.55Z" transform="translate(-181.71 -289.45)"/><path class="cls-1" d="M229.84,471.52a12.15,12.15,0,0,1-2.65-2.51,104.39,104.39,0,0,1-20.64-33.83c-1.23-3.28-2.27-6.66-1.83-10.26.27-2.27,1.56-3.09,3.75-2.51a17.19,17.19,0,0,1,6.4,3.73A70.94,70.94,0,0,1,226,438c.38.49.22.66-.18.91-1.4.91-2.78,1.85-4.21,2.73a2.62,2.62,0,0,0-1.38,2.78,17.2,17.2,0,0,0,7.6,11.76,2.69,2.69,0,0,0,3.3-.09c.86-.62,1.8-1.13,2.67-1.73.4-.27.67-.33.77.22a12.15,12.15,0,0,1,0,5.81,2.92,2.92,0,0,1-3.7,2.12,11.58,11.58,0,0,1-4.63-2.39,59.57,59.57,0,0,1-8.91-9.05c-.09-.09-.16-.26-.31-.07,0,0,.11.13.17.2a84.24,84.24,0,0,0,6.83,9.81,61,61,0,0,0,10.11,10.63C232.71,472,231.29,471.21,229.84,471.52ZM215.25,430c0-.16.09-.27.06-.31-1.55-2.21-3.41-4.06-6.13-4.7a1.58,1.58,0,0,0-2,1.25c-.39,1.36.91,4.83,2.14,5.73-.3-1.45-.64-2.87-.9-4.31-.08-.45-.25-1,.22-1.37s.95,0,1.34.27C211.78,427.68,213.5,428.83,215.25,430Zm1.69,20.58-.09-.16s-.07.06-.07.08a.77.77,0,0,0,.07.16Z" transform="translate(-181.71 -289.45)"/><path class="cls-1" d="M204,455.86c-.61-.42-.71-1.16-1-1.75a76.23,76.23,0,0,1-7.4-18,13.63,13.63,0,0,1-.38-4.12,5.2,5.2,0,0,1,2-3.78,37.14,37.14,0,0,1,5.19-3.25c-.21,6.21,2,11.74,4.4,17.17,1.37,3,2.93,6,4.42,9a2.7,2.7,0,0,0,.48.54l-.33.34c-.23-.27-.48-.22-.74-.05l-6,3.94Zm-5.08-11.44c2-1.29,4-2.55,5.92-3.79a.63.63,0,0,0,.28-.92,50.38,50.38,0,0,1-3.1-10.12l-5.77,3.71a.72.72,0,0,0-.3.84A46.32,46.32,0,0,0,198.92,444.42Z" transform="translate(-181.71 -289.45)"/><path class="cls-1" d="M197.1,466.27a64.48,64.48,0,0,1-8.66-19.16c-.15-.6-.26-1.2-.35-1.8-.37-2.39-.08-4.46,2.48-5.58a15.63,15.63,0,0,0,2.37-1.52c.58-.41.81-.37,1,.41,1.81,6.87,5,13.16,8.5,19.28.69,1.2,1.43,2.37,2.15,3.56l-.36.26c-.18-.09-.34-.23-.55-.12-.12-.11-.14,0-.16.07-1.25.83-2.53,1.62-3.75,2.5-.78.55-1.77.83-2.29,1.72A.36.36,0,0,0,197.1,466.27Zm-3-25.07c-1.65,1.07-3.12,2.09-4.66,3a1.24,1.24,0,0,0-.69,1.48,39.6,39.6,0,0,0,2.38,8.05c.2.55.43.57.88.27q2.55-1.69,5.14-3.32c.54-.34.56-.65.3-1.19A67.65,67.65,0,0,1,194.09,441.2Z" transform="translate(-181.71 -289.45)"/><path class="cls-1" d="M211.34,452l.33-.34c2.21,3.47,4.38,7,6.83,10.29a108.32,108.32,0,0,0,8.28,10,37.82,37.82,0,0,0,9.83,7.88c.52.28,1.17.31,1.68.86l-4.73,3.11a4.61,4.61,0,0,1-4.86.17,25.71,25.71,0,0,1-5.45-3.71c-8-6.83-14.08-15.24-19.25-24.34l.62,0c.63,1.08,1.25,2.17,1.91,3.24a101,101,0,0,0,7.84,11.07c3.5,4.25,7.08,8.44,11.67,11.59.27.19.5.57,1,.27l6-3.93a51.11,51.11,0,0,1-6.49-5.64,69.47,69.47,0,0,1-6.15-7.12A102.71,102.71,0,0,1,211.34,452Z" transform="translate(-181.71 -289.45)"/><path class="cls-1" d="M229.84,471.52c1.45-.31,2.87.51,4.32.08a13.38,13.38,0,0,0,4.12,2.27c2.08.57,3.35-.28,3.57-2.41.27-2.55-.6-4.88-1.4-7.21a65.19,65.19,0,0,0-4.51-9.88c-.14-.25-.26-.5-.4-.75s-.08-.41.15-.5.28.12.35.25c.46.86.94,1.71,1.37,2.59a58.65,58.65,0,0,1,5.66,15.77,13.55,13.55,0,0,1,.11,4.26c-.27,2-1.58,2.86-3.57,2.37-2.53-.62-4.51-2.21-6.48-3.78A18.33,18.33,0,0,1,229.84,471.52Z" transform="translate(-181.71 -289.45)"/><path class="cls-1" d="M190.62,471.54a51.74,51.74,0,0,1-4.76-9.09l.46-.32c1.26-.2,2-1.34,3.18-1.74.27.07.45,0,.48-.32a.15.15,0,0,1,.11-.13l.48-.36c.06,0,.08.05.08.11s-.07.07-.06.08l.13.14,5.23,9.14-.27.46-3.76,2.29Z" transform="translate(-181.71 -289.45)"/><path class="cls-1" d="M204.25,461.72l.36-.26c1.93,2.82,3.8,5.69,5.9,8.4a77.65,77.65,0,0,0,12.6,13.36c-1.57,1-3,2-4.57,3-1.07.64-2.15.21-3.15-.27a23.38,23.38,0,0,1-5.32-3.65,70.4,70.4,0,0,1-13-16,.36.36,0,0,1,.4-.38,87,87,0,0,0,9.85,12.9,36.2,36.2,0,0,0,6.4,5.65c.43.27.81.5,1.33.15,1.39-.93,2.81-1.83,4.22-2.71.64-.4.71-.72.1-1.27a70.11,70.11,0,0,1-9.69-10.82A60.46,60.46,0,0,1,204.25,461.72Z" transform="translate(-181.71 -289.45)"/><path class="cls-1" d="M190.62,471.54l1.3.26c-.24.31-.13.56.08.86a55.43,55.43,0,0,0,7.14,8.67c2.06,1.93,2.05,1.87,4.48.35.88-.55,1-.88.26-1.67a78.58,78.58,0,0,1-8.2-10.5l.27-.46a5.11,5.11,0,0,1,1.32,1.71,74.23,74.23,0,0,0,10.36,12.43c-1,.63-1.89,1.2-2.79,1.82-.55.37-1,.12-1.5-.1a17.63,17.63,0,0,1-5-3.69A45.81,45.81,0,0,1,190.62,471.54Z" transform="translate(-181.71 -289.45)"/><path class="cls-1" d="M183.94,456.09a4,4,0,0,1,3.15-3.92c.8-.1.59.85.84,1.32,0,.59-1.07.53-.83,1.3l-2.24,1.42C184.63,455.6,184.25,456.11,183.94,456.09Z" transform="translate(-181.71 -289.45)"/><path class="cls-1" d="M183.94,456.09c.31,0,.69-.49.93.12a1.05,1.05,0,0,0-.12,1,28,28,0,0,0,1.57,4.9l-.46.32A18.68,18.68,0,0,1,183.94,456.09Z" transform="translate(-181.71 -289.45)"/><path class="cls-1" d="M187.1,454.79c-.24-.77.8-.71.83-1.3l2.64,6.09-.48.36c-.72-1.65-1.47-3.3-2.15-5C187.71,454.41,187.41,454.7,187.1,454.79Z" transform="translate(-181.71 -289.45)"/><path class="cls-1" d="M426.07,342.74a91.59,91.59,0,0,0-6.49-13.55c-.94-1.62-1.92-3.22-2.91-4.82-.2-.32-.3-.78-1-.83.61,1.41,1.21,2.74,1.77,4.08a34.45,34.45,0,0,1,2.74,9.09,8.13,8.13,0,0,1-.16,3.15,2.9,2.9,0,0,1-3.32,2.22,12.55,12.55,0,0,1-5.83-2.76l3.23-2.18c1.47-1,1.94-2,1.49-3.64a19.44,19.44,0,0,0-6.56-10.37c-1.94-1.59-2.75-1.53-4.82-.18-1.19.78-2.41,1.53-3.58,2.34-.48.33-.71.33-1-.23-3.08-5.86-5.83-11.85-7-18.45a12.5,12.5,0,0,1-.07-3.91c.29-2,1.52-2.89,3.54-2.43,2.55.59,4.56,2.16,6.5,3.78a78.63,78.63,0,0,1,11.85,12.81,95.83,95.83,0,0,1,8.93,13.73,5.4,5.4,0,0,1,.25.67c-.2.15-.17.35-.1.55.45,1.34,1,2.67,1.35,4A23.74,23.74,0,0,1,426.07,342.74Zm-25-35.68a.34.34,0,0,0-.1.48s.07,0,.11,0l0-.5c-1.14-1.31-2-2.84-3.71-3.61s-2.69-.07-2.85,1.62c-.21,2.23.65,4.22,1.47,6.22.08.2.15.41.4.28a.45.45,0,0,0,.22-.38,12.15,12.15,0,0,0-.17-1.21,30.66,30.66,0,0,1-.68-4.58c0-.95.39-1.18,1.2-.75a18.74,18.74,0,0,1,2.9,2C400.2,306.93,400.51,307.52,401.1,307.06Z" transform="translate(-181.71 -289.45)"/><path class="cls-1" d="M417.32,303a60.49,60.49,0,0,1,7.52,9.21,6.53,6.53,0,0,0,.55.63l-.38.29c-.24-.13-.43-.29-.74-.07-1.85,1.24-3.72,2.46-5.59,3.66-.35.23-.41.46-.18.79l-.56,0A90.22,90.22,0,0,0,407,304.73c-2.83-2.65-5.78-5.14-9.67-6.51a55.66,55.66,0,0,1,4.9-3.32,4.86,4.86,0,0,1,5.28.06,6.71,6.71,0,0,0,1.1.46c-.11.18-.21.37-.31.55-.51-.25-.85.11-1.21.35-1.51,1-3,2-4.52,2.91-.8.47-.62.71,0,1.13a40.36,40.36,0,0,1,7,6.21c.54.59.88.45,1.41.1,1.8-1.18,3.62-2.33,5.43-3.49Z" transform="translate(-181.71 -289.45)"/><path class="cls-1" d="M429.89,315.08c-2.38-3.37-4.81-6.7-7.39-9.92v-.91l5.79-3.73h.09v-.08l.28-.2c.28,0,.48-.08.52-.39l.29.41a.18.18,0,0,0,.21.21,53.43,53.43,0,0,1,6.16,7.68,5.34,5.34,0,0,0,.51,2.22l-5.42,3.6c-.38.26-.94.42-.56,1.07Z" transform="translate(-181.71 -289.45)"/><path class="cls-1" d="M417.94,317.52l.56,0a84.78,84.78,0,0,1,6.23,9.64c3.58,6.29,6.81,12.72,8.56,19.8.18.73.46.72,1,.37,1.64-1.08,3.29-2.13,4.95-3.18.51-.33.47-.71.36-1.26-1.48-7.25-4.71-13.77-8.4-20.09-1.93-3.31-4-6.51-6.19-9.66l.38-.29a65.15,65.15,0,0,1,5.35,8c3.66,6.26,6.94,12.7,8.87,19.74a21.8,21.8,0,0,1,.9,6.52,4,4,0,0,1-1.44,3,46.41,46.41,0,0,1-5.55,3.62c.21-4.68-1.13-8.91-2.72-13.07a104.13,104.13,0,0,0-12.06-21.91C418.46,318.34,418.21,317.93,417.94,317.52Z" transform="translate(-181.71 -289.45)"/><path class="cls-1" d="M426.07,342.74a23.74,23.74,0,0,0-1.14-6.9c-.39-1.36-.9-2.69-1.35-4-.07-.2-.1-.4.1-.55a26.34,26.34,0,0,1,2.74,5.13A52.17,52.17,0,0,1,431,350.15a13.55,13.55,0,0,1,.1,3.54c-.26,2.26-1.69,3.17-3.87,2.56a15.53,15.53,0,0,1-5.51-3.09A75.77,75.77,0,0,1,410,340.91c-.17-.21-.66-.5-.32-.77s.59.24.78.49A56.11,56.11,0,0,0,420,351a10.71,10.71,0,0,0,3.75,2.19c2.27.62,3.57-.26,3.72-2.6A20.61,20.61,0,0,0,426.07,342.74Z" transform="translate(-181.71 -289.45)"/><path class="cls-1" d="M440.26,310.39a83,83,0,0,0-12-14.84,2,2,0,0,1,.21-.24c2.92-2.14,3.42-2.78,6.91.17a46.06,46.06,0,0,1,9.85,11.72c.14.24.31.47.47.7l-.29.4c-.31-.17-.41-.87-.92-.48-1.18.89-2.67,1.34-3.6,2.56ZM430.46,297c.51.56,1,1.19,1.62,1.75.82.77,1.33,2.3,2.35,2.29s1.92-1.11,2.88-1.72a1.53,1.53,0,0,1,.21-.14c.43-.23.46-.48.1-.83a28.93,28.93,0,0,0-3.58-3.15c-.47-.33-3.5,1-3.61,1.61A1.29,1.29,0,0,0,430.46,297Z" transform="translate(-181.71 -289.45)"/><path class="cls-1" d="M429.89,315.08l.48,0A96,96,0,0,1,441,335.47c.71,1.85.65,1.88,2.28.85.56-.35,1.12-.68,1.66-1.05,2.56-1.76,2.52-1.75,1.7-4.79-1.94-7.13-5.59-13.43-9.54-19.58-.17-.27-.31-.59-.73-.53a5.34,5.34,0,0,1-.51-2.22,55.21,55.21,0,0,1,5.34,8.29,62.13,62.13,0,0,1,5.94,14.15,27.3,27.3,0,0,1,.61,3.12c.3,2.21,0,4.13-2.4,5.17a18.11,18.11,0,0,0-2.48,1.57c-.43.29-.7.47-.91-.28-2.24-8.35-6.27-15.87-10.89-23.1C430.65,316.42,430.28,315.75,429.89,315.08Z" transform="translate(-181.71 -289.45)"/><path class="cls-1" d="M440.26,310.39h.59c.23.34.46.67.68,1a90.64,90.64,0,0,1,5.68,10.77c.17.37.11,1.06.94.64,2.88-1.48,3.09-2,1.94-5l-.19-.45a71.19,71.19,0,0,0-4.53-9l.29-.4a40.13,40.13,0,0,1,6,13.67c.6,2.71-.12,3.72-3.21,5C446.49,320.79,443.37,315.59,440.26,310.39Z" transform="translate(-181.71 -289.45)"/><path class="cls-1" d="M414.43,296.92l-1.85-1.45c1.64-1.05,3.22-2.18,4.91-3.1,1.08-.58,2.2-.1,3.2.51a4.18,4.18,0,0,1-1.53,1.45c-.31.17-.91.33-.58,1l-.48.29c-.44-.77-.89-.09-1.24.06C416,296,415.39,296.77,414.43,296.92Z" transform="translate(-181.71 -289.45)"/><path class="cls-1" d="M414.43,296.92c1-.15,1.59-.9,2.43-1.28.35-.15.8-.83,1.24-.06-.6.42-1.2.84-1.79,1.27-.36.25-.62.46-.12.91,2.27,2,4.22,4.31,6.31,6.49v.91c-2-2-3.75-4.26-5.85-6.18Z" transform="translate(-181.71 -289.45)"/><path class="cls-1" d="M418.58,295.29c-.33-.63.27-.79.58-1a4.18,4.18,0,0,0,1.53-1.45,25.61,25.61,0,0,1,6.66,5c.65.61,1.23,1.29,1.84,1.93,0,.31-.24.4-.52.39a26.39,26.39,0,0,0-4.92-4.7c-2.36-1.9-2.39-1.86-5-.36A1.06,1.06,0,0,1,418.58,295.29Z" transform="translate(-181.71 -289.45)"/><path class="cls-1" d="M417.32,303l-.88.21c.07-.6-.46-.81-.78-1.14A48.08,48.08,0,0,0,408.3,296c.1-.18.2-.37.31-.55a17.31,17.31,0,0,1,4.62,3.43A33.16,33.16,0,0,1,417.32,303Z" transform="translate(-181.71 -289.45)"/><path class="cls-3" d="M429.69,300.47a.18.18,0,0,1-.21-.21C429.62,300.25,429.69,300.33,429.69,300.47Z" transform="translate(-181.71 -289.45)"/><path class="cls-1" d="M212.53,330.5a66.45,66.45,0,0,1,6.2-10.09A88.27,88.27,0,0,1,232,305.07c2.28-2,4.62-4,7.71-4.79,2.07-.5,3.28.42,3.53,2.56a19.3,19.3,0,0,1-.8,7.13,71.23,71.23,0,0,1-6.6,15.71c-1.65-1.05-3.27-2-4.82-3.11a2.79,2.79,0,0,0-3.3-.08,13.27,13.27,0,0,0-3.93,3.79,19.14,19.14,0,0,0-3.49,7c-.49,2-.11,3,1.58,4l3.11,2c-1.95,1.39-3.83,2.63-6.18,2.8a2.85,2.85,0,0,1-3-2.44c-.61-2.76.21-5.35,1-7.9a50.82,50.82,0,0,1,3.81-8.92,2.3,2.3,0,0,0,.13-.52C219,323.76,213,334.86,210.07,342c-.26-.27-.19-.61-.19-.93a19.41,19.41,0,0,1,1-5C211.37,334.21,212,332.36,212.53,330.5ZM239,312.39c1.38-2.26,2.5-4.56,2.32-7.22-.07-1-.41-1.88-1.57-2-1.48-.16-4.14,2.14-4.31,3.67.86-.22,1.38-.95,2.11-1.36s1.49-1.41,2.24-.88.27,1.66.13,2.53C239.63,308.88,239.3,310.63,239,312.39Z" transform="translate(-181.71 -289.45)"/><path class="cls-1" d="M214.14,304.25c-2.85,3.38-5.44,6.95-8,10.56l-.56-.05c.08-.56-.45-.6-.74-.8-1.85-1.23-3.71-2.43-5.57-3.64v-1.19a64.68,64.68,0,0,1,6.89-8.68,1.26,1.26,0,0,0,1.13-.15c1.8,1.17,3.6,2.33,5.4,3.52.38.25.73.51,1.15.1Z" transform="translate(-181.71 -289.45)"/><path class="cls-1" d="M212.53,330.5c-.56,1.86-1.16,3.71-1.68,5.58a19.41,19.41,0,0,0-1,5c0,.32-.07.66.19.93a20.88,20.88,0,0,0-1.72,8.43c.15,2.64,1.55,3.55,4,2.64a17.17,17.17,0,0,0,5.58-3.91,60,60,0,0,0,7.17-8.18c.17-.23.34-.46.52-.68s.28-.38.49-.25.08.39-.06.6a56.32,56.32,0,0,1-3.85,4.59,53.14,53.14,0,0,1-9.77,9.06,13.08,13.08,0,0,1-3.93,1.93c-2.2.59-3.57-.36-3.79-2.64a18.62,18.62,0,0,1,.78-6.77,74.39,74.39,0,0,1,6.82-16.2C212.37,330.58,212.46,330.55,212.53,330.5Z" transform="translate(-181.71 -289.45)"/><path class="cls-1" d="M190.94,306.71a45.78,45.78,0,0,1,6-7.69c.43.36.64-.13,1-.25,1,.7,2.09,1.37,3.1,2.11a.76.76,0,0,0,1.14-.14l.27.35c-2.28,2.85-4.42,5.81-6.5,8.81l-.86.22a26,26,0,0,0-4-2.36Z" transform="translate(-181.71 -289.45)"/><path class="cls-1" d="M205.59,314.76l.56.05c-2.53,4.22-5.27,8.32-7.39,12.77a74.81,74.81,0,0,0-4.18,10.16c-.26.85-.5,1.7-.72,2.56-.11.44-.3.51-.68.26a38.51,38.51,0,0,1-4.36-2.92c-1.07-.95-.93-2.48-.75-3.81a46.37,46.37,0,0,1,4.84-14,67.69,67.69,0,0,1,6.36-10.67c0,.4,0,.79,0,1.19a1.84,1.84,0,0,0-.35.33,87.45,87.45,0,0,0-7.75,14.1,36.76,36.76,0,0,0-2.41,7.92c-.07.43-.32.92.29,1.3,1.24.78,2.41,1.66,3.64,2.45,1.46.94,1.46.91,2-.67A102.32,102.32,0,0,1,205.59,314.76Z" transform="translate(-181.71 -289.45)"/><path class="cls-1" d="M190.94,306.71l.06,1.05a46.87,46.87,0,0,0-5.78,11.67c-.36,1.16-.16,1.81.9,2.33.69.33,1.39,1.18,2,1.09.74-.12.79-1.28,1.12-2,1.74-3.69,3.72-7.25,5.8-10.75l.86-.22a122.12,122.12,0,0,0-6.57,12,33.82,33.82,0,0,0-1.58,4c-.19.64-.5.87-1.11.4a7.82,7.82,0,0,0-1.42-.95,2,2,0,0,1-1.11-2.11,16.13,16.13,0,0,1,1.06-5A45.73,45.73,0,0,1,190.94,306.71Z" transform="translate(-181.71 -289.45)"/><path class="cls-1" d="M227.42,295.31a5.76,5.76,0,0,1,6.2-.41c1.7.91,3.14,2.18,4.9,3.31a24,24,0,0,0-6.1,3.37l-.32-.31a4.72,4.72,0,0,1,1.41-1.1c.29-.22.55-.4.07-.7a53.87,53.87,0,0,0-5.84-3.6Z" transform="translate(-181.71 -289.45)"/><path class="cls-1" d="M215.16,292.86a3.5,3.5,0,0,1,4.37.19,43.9,43.9,0,0,0,3.7,2.44l-1.55,1.18a6,6,0,0,0-2.11.13.09.09,0,0,1-.1-.1c.09-.13.18-.31,0-.4s-.27.07-.3.23l-.3-.2c0-.29.37-.69-.09-.83-1.24-.39-1.75-1.89-3.14-2C215.34,293.42,215.25,293.13,215.16,292.86Z" transform="translate(-181.71 -289.45)"/><path class="cls-1" d="M215.16,292.86c.09.27.18.56.51.6,1.39.15,1.9,1.65,3.14,2,.46.14.09.54.09.83-1.1-.68-2.24-1.32-3.3-2.07a1.32,1.32,0,0,0-1.74,0,31.26,31.26,0,0,0-5,4.11c-.59.58-1.34,1.05-1.58,1.92a1.26,1.26,0,0,1-1.13.15A30.71,30.71,0,0,1,215.16,292.86Z" transform="translate(-181.71 -289.45)"/><path class="cls-1" d="M202.94,293.89a2.26,2.26,0,0,1,2.6.11c.72.43,1.39.94,2.18,1.48-.56.52-1.06,1-1.55,1.41a.94.94,0,0,0-.72-.22l-2-1.3c0-.51-.34-.47-.69-.41l-.06,0-.19-.51A.4.4,0,0,0,202.94,293.89Z" transform="translate(-181.71 -289.45)"/><path class="cls-1" d="M227.42,295.31c.11.19.22.37.32.56a45.5,45.5,0,0,0-7.61,6.23c-.29.31-.78.51-.7,1.07l-.91-.2a47.22,47.22,0,0,1,7.83-7.12A2.32,2.32,0,0,1,227.42,295.31Z" transform="translate(-181.71 -289.45)"/><path class="cls-1" d="M219.57,296.8a6,6,0,0,1,2.11-.13c-2.67,2.37-5.12,5-7.54,7.58l-.3-.33a50.18,50.18,0,0,1,5.65-6C219.89,297.53,220.2,297.22,219.57,296.8Z" transform="translate(-181.71 -289.45)"/><path class="cls-1" d="M232.1,301.27l.32.31a79,79,0,0,0-6.34,5.94.4.4,0,0,1-.43.13.62.62,0,0,1-.49-.74c.67.34.89-.26,1.24-.6A36.47,36.47,0,0,1,232.1,301.27Z" transform="translate(-181.71 -289.45)"/><path class="cls-1" d="M202.51,294.4l.19.51c-.51-.11-.83.23-1.18.5a26.48,26.48,0,0,0-3.66,3.36c-.31.12-.52.61-1,.25a19.78,19.78,0,0,1,5.34-4.81l.27.2Z" transform="translate(-181.71 -289.45)"/><path class="cls-1" d="M205.45,296.67a.94.94,0,0,1,.72.22l-3.8,4.2-.27-.35c.25-.36.48-.73.75-1.07A23.21,23.21,0,0,0,205.45,296.67Z" transform="translate(-181.71 -289.45)"/><path d="M424.05,432.6c-.16-1.42.63-2.66.73-4,.05-.7.53-1.58-.19-2s-1.29.29-1.87.63c-1.6.93-3,2.25-4.78,3a11.43,11.43,0,0,1,5.78-4.78c1.64-.42,2.63.4,2.46,2.13a12,12,0,0,1-2.16,5.13Z" transform="translate(-181.71 -289.45)"/><polygon class="cls-4" points="242.31 143.16 242.29 143.12 242.34 143.14 242.31 143.16"/><path class="cls-4" d="M415.58,451.86c0-.11.11-.21.23-.12s0,.19,0,.29Z" transform="translate(-181.71 -289.45)"/><path d="M428.64,455.9a7.24,7.24,0,0,1-1.55,3,104.67,104.67,0,0,1-13,17.1,43.32,43.32,0,0,1-6.84,6.06c-.36.24-.62.4-1.07.1-1.68-1.14-3.4-2.22-5.11-3.31-.55-.35-.6-.6,0-1,7.55-5.8,13.13-13.32,18.3-21.18a30.57,30.57,0,0,0,2.62-4.4c.42-.45.73-.05,1.05.15Z" transform="translate(-181.71 -289.45)"/><path d="M437.36,434.51a44.53,44.53,0,0,1-2.67,9.62c-.14.37-.31.58-.79.26-1.76-1.19-3.55-2.32-5.34-3.45-.49-.31-.46-.62-.26-1.12a45.68,45.68,0,0,0,2.85-9.21c.1-.64.35-.68.87-.33,1.63,1.1,3.28,2.15,4.93,3.21A.77.77,0,0,1,437.36,434.51Z" transform="translate(-181.71 -289.45)"/><path d="M435.7,465.74c.26.46-.08.78-.29,1.1-4,6.07-8.33,11.8-13.92,16.5l-.27.25c-2.07,1.72-2.08,1.74-4.36.35-1-.59-1.89-1.29-2.88-1.85-.72-.41-.56-.7-.06-1.14a74.67,74.67,0,0,0,9.46-10.56q2.89-3.79,5.48-7.81c.19-.3.27-.71.74-.73Z" transform="translate(-181.71 -289.45)"/><path d="M443.58,444.24c1.12.58,1.1,1.48.88,2.57-.43,2.06-1.16,4-1.77,6-.74,1.83-.74,1.83-2.4.75l-4.59-3a25,25,0,0,1,1.42-3.47c.71-1.85,1.45-3.69,2.2-5.61l3.78,2.37Z" transform="translate(-181.71 -289.45)"/><path d="M441.69,472.31a47.3,47.3,0,0,1-8.86,10.53c-.55.47-1,.6-1.58.11s-2.07-1-2.27-1.71,1-1.49,1.67-2.2a95.19,95.19,0,0,0,7-9.24Z" transform="translate(-181.71 -289.45)"/><path d="M448.58,456.55c.18,1.79-.69,3.34-1.19,5-.09.3-.22.59-.34.89-1.45-.4-2.5-1.51-3.8-2.19.72-1.66,1.45-3.32,2.16-5,.19-.44.4-.37.73-.16.68.43,1.38.83,2.07,1.23Z" transform="translate(-181.71 -289.45)"/><path d="M215.25,430c-1.75-1.16-3.47-2.31-5.22-3.44-.39-.25-.86-.62-1.34-.27s-.3.92-.22,1.37c.26,1.44.6,2.86.9,4.31-1.23-.9-2.53-4.37-2.14-5.73a1.58,1.58,0,0,1,2-1.25c2.72.64,4.58,2.49,6.13,4.7C215.34,429.72,215.28,429.83,215.25,430Z" transform="translate(-181.71 -289.45)"/><path class="cls-4" d="M217.22,451.16c-.06-.07-.18-.18-.17-.2.15-.19.22,0,.31.07Z" transform="translate(-181.71 -289.45)"/><path class="cls-4" d="M216.94,450.57l-.09.08a.77.77,0,0,1-.07-.16s.05-.05.07-.08Z" transform="translate(-181.71 -289.45)"/><path d="M211.34,452a102.71,102.71,0,0,0,9,13.37,69.47,69.47,0,0,0,6.15,7.12,51.11,51.11,0,0,0,6.49,5.64L227,482c-.45.3-.68-.08-1-.27-4.59-3.15-8.17-7.34-11.67-11.59a101,101,0,0,1-7.84-11.07c-.66-1.07-1.28-2.16-1.91-3.24l6-3.94C210.86,451.73,211.11,451.68,211.34,452Z" transform="translate(-181.71 -289.45)"/><path d="M198.92,444.42a46.32,46.32,0,0,1-3-10.28.72.72,0,0,1,.3-.84l5.77-3.71a50.38,50.38,0,0,0,3.1,10.12.63.63,0,0,1-.28.92C202.88,441.87,200.93,443.13,198.92,444.42Z" transform="translate(-181.71 -289.45)"/><path d="M204.25,461.72a60.46,60.46,0,0,0,5.46,8.07,70.11,70.11,0,0,0,9.69,10.82c.61.55.54.87-.1,1.27-1.41.88-2.83,1.78-4.22,2.71-.52.35-.9.12-1.33-.15a36.2,36.2,0,0,1-6.4-5.65,87,87,0,0,1-9.85-12.9c.52-.89,1.51-1.17,2.29-1.72,1.22-.88,2.5-1.67,3.75-2.5h.1l.06-.08C203.91,461.49,204.07,461.63,204.25,461.72Z" transform="translate(-181.71 -289.45)"/><path d="M194.09,441.2a67.65,67.65,0,0,0,3.35,8.29c.26.54.24.85-.3,1.19Q194.55,452.3,192,454c-.45.3-.68.28-.88-.27a39.6,39.6,0,0,1-2.38-8.05,1.24,1.24,0,0,1,.69-1.48C191,443.29,192.44,442.27,194.09,441.2Z" transform="translate(-181.71 -289.45)"/><path class="cls-3" d="M203.7,461.6l-.06.08h-.1C203.56,461.57,203.58,461.49,203.7,461.6Z" transform="translate(-181.71 -289.45)"/><path d="M195.68,469.51a78.58,78.58,0,0,0,8.2,10.5c.76.79.62,1.12-.26,1.67-2.43,1.52-2.42,1.58-4.48-.35a55.43,55.43,0,0,1-7.14-8.67c-.21-.3-.32-.55-.08-.86Z" transform="translate(-181.71 -289.45)"/><path d="M187.1,454.79c.31-.09.61-.38.84.18.68,1.67,1.43,3.32,2.15,5a.15.15,0,0,0-.11.13.55.55,0,0,0-.48.32c-1.16.4-1.92,1.54-3.18,1.74a28,28,0,0,1-1.57-4.9,1.05,1.05,0,0,1,.12-1Z" transform="translate(-181.71 -289.45)"/><path class="cls-2" d="M401.1,307.06c-.59.46-.9-.13-1.23-.4a18.74,18.74,0,0,0-2.9-2c-.81-.43-1.22-.2-1.2.75a30.66,30.66,0,0,0,.68,4.58,12.15,12.15,0,0,1,.17,1.21.45.45,0,0,1-.22.38c-.25.13-.32-.08-.4-.28-.82-2-1.68-4-1.47-6.22.16-1.69,1.31-2.34,2.85-1.62s2.57,2.3,3.71,3.61Z" transform="translate(-181.71 -289.45)"/><path class="cls-2" d="M425,313.1c2.16,3.15,4.26,6.35,6.19,9.66,3.69,6.32,6.92,12.84,8.4,20.09.11.55.15.93-.36,1.26-1.66,1.05-3.31,2.1-4.95,3.18-.54.35-.82.36-1-.37-1.75-7.08-5-13.51-8.56-19.8a84.78,84.78,0,0,0-6.23-9.64c-.23-.33-.17-.56.18-.79,1.87-1.2,3.74-2.42,5.59-3.66C424.58,312.81,424.77,313,425,313.1Z" transform="translate(-181.71 -289.45)"/><path class="cls-2" d="M408.3,296a48.08,48.08,0,0,1,7.36,6.07c.32.33.85.54.78,1.14-1.81,1.16-3.63,2.31-5.43,3.49-.53.35-.87.49-1.41-.1a40.36,40.36,0,0,0-7-6.21c-.62-.42-.8-.66,0-1.13,1.54-.91,3-1.94,4.52-2.91C407.45,296.08,407.79,295.72,408.3,296Z" transform="translate(-181.71 -289.45)"/><path class="cls-2" d="M436.36,310.37c.42-.06.56.26.73.53,4,6.15,7.6,12.45,9.54,19.58.82,3,.86,3-1.7,4.79-.54.37-1.1.7-1.66,1.05-1.63,1-1.57,1-2.28-.85A96,96,0,0,0,430.37,315c-.37-.65.19-.81.57-1.07Z" transform="translate(-181.71 -289.45)"/><path class="cls-2" d="M418.58,295.29a1.06,1.06,0,0,0,.21-.11c2.57-1.5,2.6-1.54,5,.36a26.39,26.39,0,0,1,4.92,4.7l-.28.2h-.08l0,.09-5.79,3.73c-2.09-2.18-4-4.49-6.31-6.49-.5-.45-.24-.66.12-.91.59-.43,1.19-.85,1.79-1.27Z" transform="translate(-181.71 -289.45)"/><polygon class="cls-3" points="246.59 11.07 246.6 10.98 246.69 10.98 246.67 11.06 246.59 11.07"/><path class="cls-2" d="M445.37,308.3a71.19,71.19,0,0,1,4.53,9l.19.45c1.15,3.05.94,3.54-1.94,5-.83.42-.77-.27-.94-.64a90.64,90.64,0,0,0-5.68-10.77c-.22-.34-.45-.67-.68-1,.93-1.22,2.42-1.67,3.6-2.56C445,307.43,445.06,308.13,445.37,308.3Z" transform="translate(-181.71 -289.45)"/><path class="cls-2" d="M430.46,297a1.29,1.29,0,0,1,0-.19c.11-.57,3.14-1.94,3.61-1.61a28.93,28.93,0,0,1,3.58,3.15c.36.35.33.6-.1.83a1.53,1.53,0,0,0-.21.14c-1,.61-1.92,1.71-2.88,1.72s-1.53-1.52-2.35-2.29C431.48,298.16,431,297.53,430.46,297Z" transform="translate(-181.71 -289.45)"/><path d="M239,312.39c.31-1.76.64-3.51.92-5.26.14-.87.6-2-.13-2.53s-1.51.47-2.24.88-1.25,1.14-2.11,1.36c.17-1.53,2.83-3.83,4.31-3.67,1.16.12,1.5,1,1.57,2C241.49,307.83,240.37,310.13,239,312.39Z" transform="translate(-181.71 -289.45)"/><path class="cls-2" d="M205.59,314.76a102.32,102.32,0,0,0-10.85,21c-.58,1.58-.58,1.61-2,.67-1.23-.79-2.4-1.67-3.64-2.45-.61-.38-.36-.87-.29-1.3a36.76,36.76,0,0,1,2.41-7.92,87.45,87.45,0,0,1,7.75-14.1,1.84,1.84,0,0,1,.35-.33c1.86,1.21,3.72,2.41,5.57,3.64C205.14,314.16,205.67,314.2,205.59,314.76Z" transform="translate(-181.71 -289.45)"/><path class="cls-2" d="M219.57,296.8c.63.42.32.73-.08,1.11a50.18,50.18,0,0,0-5.65,6c-.42.41-.77.15-1.15-.1-1.8-1.19-3.6-2.35-5.4-3.52.24-.87,1-1.34,1.58-1.92a31.26,31.26,0,0,1,5-4.11,1.32,1.32,0,0,1,1.74,0c1.06.75,2.2,1.39,3.3,2.07l.3.2.27.17A.09.09,0,0,0,219.57,296.8Z" transform="translate(-181.71 -289.45)"/><path class="cls-2" d="M217.53,317.25a84.24,84.24,0,0,0-7.17,11.21c-3.28,5.88-6.21,11.91-7.81,18.51-.18.74-.46.69-1,.34-1.68-1.14-3.37-2.28-5.09-3.36-.5-.32-.34-.66-.26-1.05,1.49-7,4.52-13.41,8.07-19.57,2-3.51,4.29-6.89,6.56-10.26.48-.4.81,0,1.16.24l4.55,3a1.64,1.64,0,0,0,.83.51Z" transform="translate(-181.71 -289.45)"/><path class="cls-2" d="M232.1,301.27a36.47,36.47,0,0,0-5.7,5c-.35.34-.57.94-1.24.6l-5.73-3.74c-.08-.56.41-.76.7-1.07a45.5,45.5,0,0,1,7.61-6.23,53.87,53.87,0,0,1,5.84,3.6c.48.3.22.48-.07.7A4.72,4.72,0,0,0,232.1,301.27Z" transform="translate(-181.71 -289.45)"/><path class="cls-2" d="M195,310.12c-2.08,3.5-4.06,7.06-5.8,10.75-.33.7-.38,1.86-1.12,2-.58.09-1.28-.76-2-1.09-1.06-.52-1.26-1.17-.9-2.33A46.87,46.87,0,0,1,191,307.76,26,26,0,0,1,195,310.12Z" transform="translate(-181.71 -289.45)"/><path class="cls-2" d="M205.45,296.67a23.21,23.21,0,0,1-2.6,3c-.27.34-.5.71-.75,1.07a.76.76,0,0,1-1.14.14c-1-.74-2.06-1.41-3.1-2.11a26.48,26.48,0,0,1,3.66-3.36c.35-.27.67-.61,1.18-.5l.06,0a.87.87,0,0,0,.69.41Z" transform="translate(-181.71 -289.45)"/><path class="cls-1" d="M210.6,312.63l.24.44c-2.27,3.37-4.52,6.75-6.56,10.26-3.55,6.16-6.58,12.55-8.07,19.57-.08.39-.24.73.26,1.05,1.72,1.08,3.41,2.22,5.09,3.36.53.35.81.4,1-.34,1.6-6.6,4.53-12.63,7.81-18.51a84.24,84.24,0,0,1,7.17-11.21l.47.06c-2,3.15-4.16,6.23-6.06,9.46-4.14,7-7.81,14.21-9.32,22.31a17.24,17.24,0,0,0-.28,4.64,54,54,0,0,1-5.3-3.4,5.08,5.08,0,0,1-1.73-5c.93-7,3.85-13.32,7.06-19.51A87.16,87.16,0,0,1,210.6,312.63Z" transform="translate(-181.71 -289.45)"/><path class="cls-5" d="M360.5,349.18c.87,1,.81,2,0,2.66a17.4,17.4,0,0,1-3.16,2.24c-1.36.74-2.84,1.23-4.23,1.92-2.36,1.17-4.71,2.38-7,3.66a7.43,7.43,0,0,1-5.39.62c-2.31-.49-4.64-1-7-1.41a5.36,5.36,0,0,0-1.74,0c1.6,1.1,3.46,1.82,4.44,3.63-2.63-2.79-6.23-3.51-9.67-4.59a33.56,33.56,0,0,1-3.65-1.41c-1.6-.72-2.89-1.7-2.44-3.84-3.07,0-4.18-2.45-5.73-4.61a25.56,25.56,0,0,1-.33,2.73c-.56,2.4-2,3.24-4.45,2.71-1.84-.4-3.68-.86-5.54-1.16a14.4,14.4,0,0,0-2.74.11,7.75,7.75,0,0,1,5.06-.56c1.19.15,2.36.44,3.55.63,1.72.29,2.68-.29,3-2,.48-2.91.24-5.68-2.05-7.93-1.24-1.22-2.06-2.87-3.83-3.51-.87-.31-1.72-.66-2.57-1l.06-.26,3.61,1c-.11-.5-.22-1-.32-1.47a4.23,4.23,0,0,1,3.94-5.36,7.81,7.81,0,0,1,1.45,0,5.34,5.34,0,0,0,5.53-3.32c.58-1.17,1.26-2.28,1.89-3.42l.23.13c-1,1.84-1.91,3.77-3.09,5.51a4.41,4.41,0,0,1-3.71,1.7,16.91,16.91,0,0,0-2.47.21,3.4,3.4,0,0,0-2.77,4.77,11.06,11.06,0,0,0,2.16,3.45c1.63,2,2.94,4.21,4.41,6.32a36,36,0,0,0,2.29,3.17,2.39,2.39,0,0,0,3.73.31c5.4-4.73,8.16-10.46,6.46-17.79-.23-1-.42-2-.57-3-.31-2.18.47-3.46,2.42-4.5a34.58,34.58,0,0,0,4.52-2.83,3.37,3.37,0,0,0,1.42-3.06c-.13-1.38-2.31-3-3.58-2.54-.31.1-.51.52-.76.79a42.63,42.63,0,0,1-4.27,4.43c-3.7,2.91-9,1.27-9.93-3.4-.24-1.2-.68-2.35-1-3.59a7,7,0,0,1,.77,1.07,14.86,14.86,0,0,1,.81,2.23c1.07,4.06,5.46,5.24,8.72,2.8a21.18,21.18,0,0,0,5.84-7.25c.47-.88.87-1.8,1.26-2.72,1.27-2.9.89-6.06-2.4-8,2.25.21,4.41,3.37,3.75,6.51a33.24,33.24,0,0,1-1.56,4.46c-.16.44-.39.85-.62,1.35a17.12,17.12,0,0,0,12.14,1.7c-3,1.31-6.16,1-9.49.51.84,1.38,1.06,2.74.13,3.93a18.73,18.73,0,0,1-2.82,2.81,17.1,17.1,0,0,1-2.5,1.44c-1.8,1-2.3,1.95-1.94,4s.81,4.25,1.26,6.37a.82.82,0,0,0,.6.5c2.3,0,4.36.89,6.47,1.63a12.47,12.47,0,0,0,6.57.74,9.76,9.76,0,0,0,6.66-4.94,3,3,0,0,1,.74-.9l-.87,2.35c2.45,1,5.05,1.72,7.05,3.57a22.2,22.2,0,0,0-7-2.32,1.75,1.75,0,0,0-1.24.35c-1,.79-2,1.67-3.05,2.57a3.35,3.35,0,0,0,.43.46c1.08.85,2.2,1.65,3.26,2.53a15.09,15.09,0,0,0,4.5,2.21,23.6,23.6,0,0,1,4,2.08c-6.95-3-13.72-3.94-20.37,1.23a34.81,34.81,0,0,1,3.53.79,3.53,3.53,0,0,1,2.39,2.33,7.24,7.24,0,0,0-5.08-1.7c-1.17,0-2.34.05-3.51,0a18.39,18.39,0,0,1-3-.54,2.84,2.84,0,0,1-1.13-.8c1.49.65,3,.27,4.47.27a4.31,4.31,0,0,0,3.22-1.38A13.07,13.07,0,0,1,348,344c.37,0,.73,0,.74.24-1.07-1.28-2.12-2.58-3.23-3.83-.16-.18-.64-.18-.93-.1a11.93,11.93,0,0,1-8-.8c-1.7-.74-3.45-1.36-5.18-2a7.41,7.41,0,0,0-1.27-.19c-.11,1-.15,1.87-.31,2.74a20.67,20.67,0,0,1-3.36,7.69,18.87,18.87,0,0,1-4,4.67c-1.34,1.05-1.25,2.11.28,2.91,1.94,1,4,1.74,6,2.6a11.13,11.13,0,0,0,4.77.7,43.92,43.92,0,0,1,7.47.77,6.44,6.44,0,0,0,4.93-.92c3-2.13,6.4-3.3,9.79-4.57a29.24,29.24,0,0,0,3.47-1.57C360.66,351.52,360.94,350.82,360.5,349.18Z" transform="translate(-181.71 -289.45)"/><path class="cls-6" d="M301,324c-1.12.7-2.19,1.34-3.22,2a6.11,6.11,0,0,0-1.32,1.16,1.13,1.13,0,0,0-.18,1,8.36,8.36,0,0,1,1,4.87,3.56,3.56,0,0,1-2.29,3.37c-1.71.69-3.47,1.28-5.21,1.92l-.09-.24c.85-.34,1.72-.65,2.56-1a12.2,12.2,0,0,0,3-1.51,4.07,4.07,0,0,0,1.16-2.38,5.54,5.54,0,0,0-1.48-4.67c-1.4.64-2.68,1.65-4.34,1,1.93.19,3.22-.92,4.49-2.12,1.8-1.69,3.51-3.5,5.85-4.52.24-.1.41-.51.51-.81.81-2.31,2.2-4,4.75-4.33a16.22,16.22,0,0,1,3.37.32l0,.3a22,22,0,0,0-2.94.2,5.64,5.64,0,0,0-4.19,6.6,17.69,17.69,0,0,1,.54,3.57Z" transform="translate(-181.71 -289.45)"/><path class="cls-6" d="M351.67,367.45c-1.54.55-3.07,1.14-4.62,1.63a1.8,1.8,0,0,0-1.36,1,4.69,4.69,0,0,1-1.87,1.67,12,12,0,0,1-2.29.9c-1.77.63-3.45,1.3-2.88,3.84a2.25,2.25,0,0,1,0-3.5,15.11,15.11,0,0,1,3.18-1.62c.85-.37,1.77-.56,2.63-.91a2.79,2.79,0,0,0,1.05-.91c-1.74-.23-3.48-.3-4.5-1.91a13.88,13.88,0,0,1-.92-2.24c.31,0,.4,0,.41.06a3.89,3.89,0,0,0,4.47,2.66c2.21-.23,4.41-.58,6.61-.88Z" transform="translate(-181.71 -289.45)"/><path class="cls-6" d="M370,356.39c1-.14,2-.32,3-.4a3.57,3.57,0,0,0,3.14-2.45,8.5,8.5,0,0,1,3.62-4c-1.05,1.88-2.13,4-3.37,6a3.5,3.5,0,0,1-3.35,1.44c-1,0-2-.2-3-.31Z" transform="translate(-181.71 -289.45)"/><path class="cls-7" d="M372.49,322.1a6,6,0,0,1,.65,5.81,6.73,6.73,0,0,1-4.46,4C373,327.87,372.8,325.72,372.49,322.1Z" transform="translate(-181.71 -289.45)"/><path class="cls-6" d="M358.16,373.42a5.13,5.13,0,0,1-1.25-2.94c-.87-1.71-.34-3.3,1.21-4.63a9.42,9.42,0,0,1,4.9-1.94,3.71,3.71,0,0,1,2.35.83c1.88,1.33,3.61,2.87,5.5,4.19a18.72,18.72,0,0,0,3.86,1.9c-4.23-2-6.62-6.4-10.94-8.2.07-1.14.13-2.27.22-3.39s.22-2.15.35-3.42a5.73,5.73,0,0,0-1.06,1.61,17.9,17.9,0,0,0-.47,3.35c-.08,1.64-.18,1.58-1.65,2.19a16,16,0,0,0-4.33,2.51c-2.09,1.82-1.86,5,.3,7C357.47,372.83,357.81,373.13,358.16,373.42Z" transform="translate(-181.71 -289.45)"/><path class="cls-6" d="M282,330.45c.21,0,.43,0,.66,0a1.43,1.43,0,0,1,.87.14,3.63,3.63,0,0,1,1,5,1.89,1.89,0,0,0-.1.31,2.79,2.79,0,0,0,1.11-3.88c-.72-1.44-.69-2.36.73-3.22a5.4,5.4,0,0,0,1.09-1.37l-.2-.15c-.36.44-.73.87-1.09,1.32a5.53,5.53,0,0,1-4.32,1.58C281.82,330.21,281.91,330.33,282,330.45Z" transform="translate(-181.71 -289.45)"/><path class="cls-7" d="M294.52,342.9a10.12,10.12,0,0,0,8.4-.31,7.85,7.85,0,0,0,2.12-1.31l-1.58.64a10.32,10.32,0,0,1-9.07-.05l-1.05-.49A4.72,4.72,0,0,1,294.52,342.9Z" transform="translate(-181.71 -289.45)"/><path class="cls-7" d="M288.51,347.19c-.42,1.08-1.14,1.2-2.17,1.07a2.5,2.5,0,0,0-1,.08c-.91.28-1.83,1-1.72,1.6.05.28.3.29.43.53a3.33,3.33,0,0,1,1.2-1.57l.13-.07a3,3,0,0,1,2-.08c.9.21,1.76.54,2.69.83-.24-.52-1.34-.36-1-1.32a2.42,2.42,0,0,1,1.8-1.54,7,7,0,0,1,4.89.54,6,6,0,0,0-6.36-.86C289.07,346.59,288.63,346.85,288.51,347.19Z" transform="translate(-181.71 -289.45)"/><path class="cls-6" d="M310,364.76s-.05,0-.25-.15a8.19,8.19,0,0,0,3.8,4.71,9.33,9.33,0,0,0,5.89,1c3.81-.6,6.62.89,8,4a6.25,6.25,0,0,1,.52,2.06,5.31,5.31,0,0,1,.65-2.18,7.49,7.49,0,0,0-3.92-4.09c-1-.45-1.47-.84-1-2a20.63,20.63,0,0,0,.82-3.19,7.29,7.29,0,0,0-.83,1.09,10.46,10.46,0,0,0-.53,1.45c-.56,1.53-1,1.77-2.65,1.88-.85.06-1.69.33-2.55.36a7.88,7.88,0,0,1-7.85-4.62A2.33,2.33,0,0,0,310,364.76Z" transform="translate(-181.71 -289.45)"/><path class="cls-6" d="M346.24,328.81a4.33,4.33,0,0,1,.62,1.93c-.05,1-1.07.56-1.65.73a16.26,16.26,0,0,0-4.89,1.92c1.76-.43,3.83-1.08,5.95-1.42a8.19,8.19,0,0,1,3.75.25c3.84,1.31,7.63,2.8,11.4,4.29A12.19,12.19,0,0,1,364,338c1.68,1.22,3,2.71,2.78,5a35.59,35.59,0,0,1-.55,5.49c-.46,2-2.08,2.9-4,3.21-.54.09-1.08.17-1.61.28,2.54-.05,4.91-.45,6.19-3.15l2.32.47c4.19.83,7.7-.64,9.76-4a4.84,4.84,0,0,1,2-3.34c-1.93.44-3-.06-3.88-1.89-.75-1.51-1.42-3.06-2.14-4.58a7.62,7.62,0,0,0-.52-.79c.74,1.87,1.44,3.68,2.17,5.49a3.93,3.93,0,0,0,1.94,2.3,1,1,0,0,1,.36.95,7.69,7.69,0,0,1-5.69,5.06,10.59,10.59,0,0,1-5.21-.29c-.55-.16-.73-.38-.66-1,.16-1.32.15-2.67.24-4a6.2,6.2,0,0,0-3-5.83,35.21,35.21,0,0,0-8.81-4c-2.31-.78-4.63-1.54-7-2.32a2.3,2.3,0,0,1,2-.37,41.82,41.82,0,0,0,6.64.7c3.12-.12,5.35-2,7.14-4.65-1,.92-1.89,1.8-2.86,2.53-2.47,1.85-5.24,1.83-8.09,1.08a13.28,13.28,0,0,0-2.31-.52c-1.08-.09-2.16,0-3.29,0-2.35-3.36-4.05-4.07-8.52-3.38,2.28,0,4.29.11,5.94,1.5A3.15,3.15,0,0,1,346.24,328.81Z" transform="translate(-181.71 -289.45)"/><path class="cls-7" d="M358,319.11c-.41,1.08-1.14,1.2-2.17,1.08a2.35,2.35,0,0,0-1,.07c-.91.28-1.83,1-1.72,1.61.05.27.3.29.43.52a3.27,3.27,0,0,1,1.2-1.56l.13-.08a3,3,0,0,1,2-.07c.9.2,1.76.53,2.69.82-.24-.52-1.34-.36-1-1.32a2.36,2.36,0,0,1,1.79-1.53,7,7,0,0,1,4.89.53,6,6,0,0,0-6.36-.86A1.91,1.91,0,0,0,358,319.11Z" transform="translate(-181.71 -289.45)"/><path class="cls-1" d="M269.82,358.24" transform="translate(-181.71 -289.45)"/><path class="cls-1" d="M269.82,360.74c3.22,0,3.23-5,0-5s-3.22,5,0,5Z" transform="translate(-181.71 -289.45)"/><path class="cls-8" d="M247.06,356.47" transform="translate(-181.71 -289.45)"/><path class="cls-8" d="M256.59,359.82" transform="translate(-181.71 -289.45)"/><path class="cls-2" d="M323,390.49a4.28,4.28,0,0,0-2-3.31c-.62-.38-1.33-.53-2-.85s-1-1-1.72-1.13a6.2,6.2,0,0,0-2.21.21,10.64,10.64,0,0,0-1.26-.19,5.51,5.51,0,0,0-1.35-.1,1,1,0,0,0-.74-.28c-.58,0-1.55.18-1.87.76a5.54,5.54,0,0,0-1.07.42,2.35,2.35,0,0,0-1.65-.62,2.6,2.6,0,0,0-.64.09l-.15,0a2.09,2.09,0,0,0-.36,0,4.86,4.86,0,0,0-1.29-.64,9.52,9.52,0,0,0-3.06-.3,16.57,16.57,0,0,0-2.71.26,7.06,7.06,0,0,0-4.68,2.84,4.54,4.54,0,0,0-.74,1.89,1.5,1.5,0,0,0-.81.5c-5.89,2.3-11.65,4.75-16.53,8.87a31.2,31.2,0,0,1-3.82,3.08,2.06,2.06,0,0,1-2.46-.14,6.67,6.67,0,0,1-1.46-1.24c-1.73-1.95-2.45-4.6-3-7.09a.85.85,0,0,0-.13-.25c.31-.26.42-.59.14-.9-1.8-2-1.52-5.21-1.64-7.71-.08-1.61-.15-3.22-.23-4.84l-.09-1.94a8.78,8.78,0,0,0,1.12,1.24,2.43,2.43,0,0,0,1.23,2.29,6.74,6.74,0,0,0,6.33-.58,45.11,45.11,0,0,0,5.22-3.48,2.62,2.62,0,0,0,1.06-3,2.82,2.82,0,0,0-.13-1.94,30.92,30.92,0,0,0-.47-9.77,13.36,13.36,0,0,0-4-7.84c-.32-.28-.65-.57-1-.86a2.26,2.26,0,0,0-2.13-1.53,6.16,6.16,0,0,0-5-.88c-2.59.78-4.78,4-5.15,6.62a3.62,3.62,0,0,0,2.2,4,10.89,10.89,0,0,0,3.56.58,2.53,2.53,0,0,0-.15,1.67.92.92,0,0,1-.74,1.13,11.94,11.94,0,0,0-2,.44,2.4,2.4,0,0,0-1.91,2.64,2.44,2.44,0,0,0,0,.27,8.23,8.23,0,0,0,0,1.92,2.67,2.67,0,0,0-.6,2.21,4.16,4.16,0,0,0,.42,1.23l-.2.14c-1,.73-.76,1.81-.71,2.87l.18,3.77c.11,2.41.21,4.81.35,7.22a8.32,8.32,0,0,0,1.73,5.38h0a.78.78,0,0,0-.24.74c.65,2.73,1.5,5.69,3.5,7.76a7,7,0,0,0,3.91,2.19,6.51,6.51,0,0,0,4.87-1.56c1.09-.8,2.14-1.65,3.18-2.5a1.77,1.77,0,0,0,.76,0l.65-.18a1.07,1.07,0,0,0,.7.23,3,3,0,0,0,1.52-.39,6.05,6.05,0,0,0,1.75-.12c.18.42.84.53,1.25.47l.39-.09h0l.65-.18h.3a.37.37,0,0,0-.11.31c.21.89.46,1.79.62,2.68a6.18,6.18,0,0,1-.37,2.72c-.22.88-.44,1.77-.67,2.65-.14.56-.31,1.33-.85,1.65s-.33.65.19.69a3.83,3.83,0,0,0,2.05-.55,3.17,3.17,0,0,0,1.38-1.93c.27-.92.48-1.87.72-2.81a9,9,0,0,0,.51-2.81,22.9,22.9,0,0,0-.68-3.06c-.05-.2-.34-.28-.71-.27.17-.22.14-.4-.28-.43a1.39,1.39,0,0,0,0-2.23,1.41,1.41,0,0,0-.5-.33,2.93,2.93,0,0,0,.31-.58c.19-.44.07-.7-.19-.85l.58-.29c1.91-.88,4.11-1.2,5.75-2.51a6.49,6.49,0,0,0,1.95,2.26l1.11,1a2.34,2.34,0,0,0,1.42,2,2.22,2.22,0,0,0,1.34.92,1.7,1.7,0,0,0,.24.09,2.33,2.33,0,0,0,1.44.45h0a3.19,3.19,0,0,0,2.07,0,2.45,2.45,0,0,0,1.26.34,2.39,2.39,0,0,0,.62-.08,2.45,2.45,0,0,0,2.19-3.34,7,7,0,0,0,1-3.1,1.94,1.94,0,0,0,0-.24,2.68,2.68,0,0,0,.59-2.63,2.65,2.65,0,0,0,.59-1.79,14,14,0,0,0,2.2-.68.74.74,0,0,0,.21,0h.27l.44,0a8,8,0,0,1,.84.11,8.85,8.85,0,0,1,1.33.4,2.06,2.06,0,0,0,1.1,0,2.49,2.49,0,0,0,.57-.24l.37.15a5.55,5.55,0,0,1,2.18,1.26,4,4,0,0,1,1,2.43.05.05,0,0,0,0,0c0,.34.41.43.81.43.55,0,1.64-.21,1.93-.75a.46.46,0,0,0,.07-.28A.35.35,0,0,0,323,390.49Z" transform="translate(-181.71 -289.45)"/><path class="cls-1" d="M270.26,356.75c-3.21,0-3.22,5,0,5S273.49,356.75,270.26,356.75Z" transform="translate(-181.71 -289.45)"/><path class="cls-1" d="M387.87,415.58c-.89-2.11-3.56-3.77-5.9-2.89a51.46,51.46,0,0,0-5.37,2.37,4.9,4.9,0,0,0-4.15,2.42c-.21.35-.42.7-.62,1-2.48,4.23,2.54,9.54,6.84,6.84.51-.31,1-.62,1.54-.92l5.62-2.62C388.07,420.78,388.76,417.69,387.87,415.58Z" transform="translate(-181.71 -289.45)"/><path class="cls-9" d="M316.78,289.58a97.73,97.73,0,1,0,98.15,97.65A97.56,97.56,0,0,0,316.78,289.58Z" transform="translate(-181.71 -289.45)"/><path class="cls-10" d="M245.76,371.16c.34-.46.57-.86.88-1.2,2.34-2.56,4.74-5.07,7-7.68a19.68,19.68,0,0,0,2.06-3.08c.68-1.15,1.1-1.41,2.4-1a15.53,15.53,0,0,1,1.73.76c-3.37,4.69-7.23,8.86-9.76,14Z" transform="translate(-181.71 -289.45)"/><path class="cls-10" d="M264.11,398.14a17.44,17.44,0,0,0,3,4.54c1.88,2.17,4.36,2.38,6.79.84a6.73,6.73,0,0,0,1.43-1,7.86,7.86,0,0,1,5.95-2.33c1.44,0,2.89-.05,4.33-.07.61,0,.82.29,1,.88,1.13,3.42-.19,6.19-2.22,8.77a1.57,1.57,0,0,1-1.12.49c-1.33,0-2.67-.29-3.95.36-.47.23-.82.06-1-.54a13.56,13.56,0,0,0-1-2.92c.06,1.14.12,2.29.2,3.69-3-1.74-5.2-.53-7.19,1.7l-.87-.67c-.35-.2-.72-.38-1.07-.6a3.51,3.51,0,0,0-4.14-.2c.13-1.74.24-3.29.36-4.84l-.11,0c-.47,1.56-.93,3.13-1.42,4.81-.81-.72-1.27-2.36-2.79-.48.2-1.76.36-3.16.51-4.56l-.18,0-1.46,4.38-1.21-2-.58.56c.25-1.34.51-2.68.77-4l-.14,0c-.71,1.83-1.43,3.66-2.15,5.53-.51-.74-1-1.4-1.43-2.1-.09-.16,0-.45.06-.68.21-1.11.42-2.21.54-3.32q-1.09,2.73-2.2,5.46l-.29-.07v-4.44h-.15c-.34,1.75-.67,3.49-1,5.42-.88-.69-1.31-1.18-.86-2.17,1.3-2.83,1.84-5.77.67-8.8,3.27-1.44,6.94-2.21,8.53-6.21.38,1.05.75,2.11,1,2.93.27-.89.07-2.08-.75-3.74a15.06,15.06,0,0,0-3.83-5.31c-.47-.38-1-.86-.57-1.6,1.37-2.68.59-5.22-.57-7.72a11.26,11.26,0,0,0-4.07-4.48c2.48-5.05,6.22-9.16,9.63-13.81,1.09,2.23,2.73,3.31,5.09,2.72.78,1.42.78,3,.05,3.65s-1.45.5-3.12-.64a13.61,13.61,0,0,0-1.45,5.28c-.12,1.58-.31,3.14-.41,4.72C260.27,383.19,261.05,390.86,264.11,398.14Z" transform="translate(-181.71 -289.45)"/><path class="cls-10" d="M281.37,420.57c-1.12.69-3.41.52-4.15-.41a2.06,2.06,0,0,1-.12-1.52,1.3,1.3,0,0,1,.82-.81c1.61-.34,3.27-.51,4.87-.88.87-.2,1.4,0,1.73.75a1.75,1.75,0,0,1-.82,2.21,11.76,11.76,0,0,1-2.47.32,4.65,4.65,0,0,1-.78-.13Z" transform="translate(-181.71 -289.45)"/><path class="cls-10" d="M252.88,419a1,1,0,0,1-.44.87c-1.26.64-2.3-.07-2.27-1.5v-.51l-.2-.06c.41-1.62.78-3.25,1.25-4.86.09-.32.52-.54.8-.8.23.42.7.86.65,1.24A12.55,12.55,0,0,0,252.88,419Z" transform="translate(-181.71 -289.45)"/><path class="cls-10" d="M251.64,425.23c-1.64-.08-2.84-2.88-1.8-4.82C250.47,422.11,251.06,423.68,251.64,425.23Z" transform="translate(-181.71 -289.45)"/><path class="cls-10" d="M251,420.92l.4-.27a3.49,3.49,0,0,1,.73.76c.41.86.77,1.75,1.1,2.64a2,2,0,0,1,0,.73,2.12,2.12,0,0,1-.74-.18,1.6,1.6,0,0,1-.58-.69C251.58,422.92,251.3,421.92,251,420.92Z" transform="translate(-181.71 -289.45)"/><path class="cls-10" d="M252.92,420.58l.43-.32c.29.22.7.38.85.68a19.85,19.85,0,0,1,1.17,2.73,1,1,0,0,1-.33.81.79.79,0,0,1-.75-.22C253.79,423.05,253.37,421.81,252.92,420.58Z" transform="translate(-181.71 -289.45)"/><path class="cls-10" d="M255.27,417.5a1.79,1.79,0,0,1-1.22,2.07c-1.41-1.61-.45-7.32.67-9.36a2.67,2.67,0,0,1,.84,2.81A12.48,12.48,0,0,0,255.27,417.5Z" transform="translate(-181.71 -289.45)"/><path class="cls-10" d="M255.33,421c-.35-.87-.09-1.37.83-1.53.65,1.48,1.27,2.88,1.86,4.29a.68.68,0,0,1-.18.6.66.66,0,0,1-.63.08,2.81,2.81,0,0,1-.89-1C255.93,422.64,255.67,421.78,255.33,421Z" transform="translate(-181.71 -289.45)"/><path class="cls-10" d="M258.75,416.35a2.27,2.27,0,0,1-1.81,2.12.86.86,0,0,1-.64-.45,6.26,6.26,0,0,1-.23-1.72,12.62,12.62,0,0,1,1.15-5c1.49.74,1.83,1.45,1.61,2.83A13.07,13.07,0,0,0,258.75,416.35Z" transform="translate(-181.71 -289.45)"/><path class="cls-10" d="M257.63,420.42c-.22-1.39-.16-1.48,1.11-1.92.67.48,1.28.88,1.86,1.32.85.66,1.15,3.21.48,4.08-.47.61-1,.43-1.55.12C258.16,423.21,257.85,421.84,257.63,420.42Z" transform="translate(-181.71 -289.45)"/><path class="cls-10" d="M262.11,415.89c.07,1.61-.14,1.94-1.76,2.59-1.3-2-.86-5.68.94-7.05a3.66,3.66,0,0,1,.88,3A4.89,4.89,0,0,0,262.11,415.89Z" transform="translate(-181.71 -289.45)"/><path class="cls-10" d="M261.4,419.41c.23-.48.31-.88.53-1a1.16,1.16,0,0,1,.9.09,3.85,3.85,0,0,0,3.91.12,4,4,0,0,1,1.6-.24.76.76,0,0,1,.54.23,4.4,4.4,0,0,1,.06,3.16,2,2,0,0,1-2.72.64c-.56-.23-1-.42-1.63.2s-1.46.12-1.84-.44A19,19,0,0,1,261.4,419.41Z" transform="translate(-181.71 -289.45)"/><path class="cls-10" d="M268,417.43l-1.58-.15c-.15.18-.28.45-.48.53-2.23.84-3.08.17-2.89-2.22.27-3.39,2.82-4.73,5.74-3a10.57,10.57,0,0,1,1.47,1.12,2.64,2.64,0,0,1,.56,3.16,1.84,1.84,0,0,1-1.2.73A6.49,6.49,0,0,1,268,417.43Z" transform="translate(-181.71 -289.45)"/><path class="cls-10" d="M270.2,418.75a1.47,1.47,0,0,1,1-.77,15.46,15.46,0,0,1,2.36,0v-.08h.31c2.6-.07,2.6-.07,2.52,2.49a1.37,1.37,0,0,1-1.64,1.13,5.49,5.49,0,0,1-1.22-.83.83.83,0,0,0-.54-.09c-.33.05-.65.2-1,.26C270.15,421.14,269.54,420.46,270.2,418.75Z" transform="translate(-181.71 -289.45)"/><path class="cls-10" d="M276.33,417.19a2.53,2.53,0,0,0-2.39-.05c-1.67.61-2.27,0-2.35-2.08a16.5,16.5,0,0,1,.69-2.43,1.79,1.79,0,0,1,2.65-.9c.38.17.75.36,1.13.51,2.18.87,2.47,1.32,2.33,3.67C278.32,417.27,277.5,417.85,276.33,417.19Z" transform="translate(-181.71 -289.45)"/><path class="cls-10" d="M283.7,416.33a5.9,5.9,0,0,0-2.19.14c-.24,0-.46.12-.7.17-1.39.28-1.76,0-1.76-1.43v-.48c-.06-2.06.68-3.05,2.41-3.39a2.81,2.81,0,0,1,1,.08,13,13,0,0,0,2,.39,1.67,1.67,0,0,1,1.83,1.32.38.38,0,0,0,0,.1C287.05,415.58,286.07,416.82,283.7,416.33Z" transform="translate(-181.71 -289.45)"/><path class="cls-10" d="M249.43,410.32c1,.79,1.25,1.48.78,2.54-.92,2-1.05,3.65-.89,6.87-.83.1-1.54-.06-1.67-1A14.28,14.28,0,0,1,249.43,410.32Z" transform="translate(-181.71 -289.45)"/><path class="cls-10" d="M249.06,425.41a3.53,3.53,0,0,1-.65-.48,1.15,1.15,0,0,1-.19-.59c-.15-1-.29-2-.45-3.16.09-.13.26-.36.44-.59a3.05,3.05,0,0,1,.38.71c.23,1.11.43,2.23.6,3.34A2.35,2.35,0,0,1,249.06,425.41Z" transform="translate(-181.71 -289.45)"/><path class="cls-10" d="M314.55,401.73c-2.64,4.55-5.3,9.1-7.83,13.71a31.06,31.06,0,0,0-1.65,4.51l.18.05,3.51-6.47.3.13c-.32,1.32-.66,2.64-.95,4a24.12,24.12,0,0,0-.73,8.29,3.3,3.3,0,0,1-1.19,2.95C305,430,303.73,431,302.48,432a6.11,6.11,0,0,0-2,2.89,3.28,3.28,0,0,1-1.83,1.79,25.67,25.67,0,0,1-5.86,1.52c-5.83.61-11.38,2.33-16.92,4.08-2.42.76-4.81,1.6-7.34,2.44,1.17-3.94,3-7.07,7.19-8.18a8.73,8.73,0,0,0-6.6,3.71,12.48,12.48,0,0,0-1.76,2.91c-1,2.68-3.1,3.43-5.57,3.61-4,.3-7.67-1-11.22-2.68-.2-.09-.35-.59-.32-.88.33-2.7.75-5.39,1.05-8.09A10.41,10.41,0,0,0,249.9,429c-.24-.45-.44-.91-.67-1.4.7-.49,1.21-.55,1.61.28a8,8,0,0,0,1.33,2c-.33-1-.66-1.91-1-2.84,1.3-1.1,2.36,0,3.95,2.55a14.44,14.44,0,0,0-.57-1.68c-.26-.59-.63-1.13-.95-1.7l1.91-.89,2.28,3.7.16-.06c-.36-1-.71-1.93-1.07-2.87l2-.53,2.5,3.61c-.43-1.24-.77-2.25-1.05-3l2.6-1.9,1.74,3,.18-.07c-.39-1.15-.79-2.31-1.22-3.59,2.05.14,4.19,1.81,6-.47a6.67,6.67,0,0,1,2.68,4,7,7,0,0,0-1.88-4.69l.12-.29,4.37.88a7.31,7.31,0,0,0,1,.25c1.72.13,1.91.27,2.34,2,.09.36.17.72.32,1.36.13-1.86.05-3.35-1.34-4.62,3.45.21,6.8.3,9.14-2.88a20.14,20.14,0,0,1-4.06,7.83l.33.22c1-1.51,2.16-3,3.07-4.53a26.93,26.93,0,0,0,3.24-15.35c-.2-3.46-.75-6.91-1.11-10.36-.3-2.84-.36-2.14,1.89-3,1.47-.54,2.9-1.19,4.49-1.84.48.76,1.06,1.77,1.73,2.71a20,20,0,0,0,2.21,2.71,4.94,4.94,0,0,0,6.35.7l1.16-.71a14,14,0,0,1-3.17,5.84l.25.2a27.51,27.51,0,0,0,2.33-2.64,24.09,24.09,0,0,0,4.11-11c.2-1.83.09-1.84,2.13-2.38a9.78,9.78,0,0,1,6,.4c2.64,1,3.32,3,1.89,5.91C317.85,396.63,316.07,399.11,314.55,401.73Z" transform="translate(-181.71 -289.45)"/><path class="cls-10" d="M331.8,401c.76.26,1.24.42,1.72.6a1.61,1.61,0,0,1,1.15,1.74c-.09,1.69-.16,3.37-.22,5.06-.1,2.54-.12,5.08,1.44,7.52l-4.77-.51c.24-2.46.54-4.8.66-7.16S331.8,403.54,331.8,401Z" transform="translate(-181.71 -289.45)"/><path class="cls-10" d="M334.33,418.51c.42,1.33,1.08,1.63,2.76,1.84,2.41.29,4.81.74,7.2,1.2a3.81,3.81,0,0,1,2.9,2.53c.39,1,.84,2,1.3,2.93.91,1.93,2,3.73,4.61,4-1.49,1-2.07.91-3.18,0a19.69,19.69,0,0,0-9-4.59,5.16,5.16,0,0,0-4.22.84.76.76,0,0,1-.35.21c-2.23.34-4.46.66-6.88,1,.5-4.14,1-8.08,1.45-12C332.77,416.19,333.8,416.81,334.33,418.51Z" transform="translate(-181.71 -289.45)"/><path class="cls-10" d="M335.75,450.7l-6.62,4.24c-.23-3.3-.45-6.39-.67-9.59a5.46,5.46,0,0,0,4.49-1.64,5,5,0,0,1,4.21-1.33,49.62,49.62,0,0,1,6.59,1.54,3.92,3.92,0,0,1,1.88,1.73c.94,1.64,1.6,3.43,2.53,5.07a4.17,4.17,0,0,0,3.7,2.32c-1.4,1-2,1-3.14.09a20.25,20.25,0,0,0-8.58-4.54c-1.83-.39-3.64-.34-5.15,1.18Z" transform="translate(-181.71 -289.45)"/><path class="cls-10" d="M334.78,438.43l-6.12,3.73c0-1.2-.05-2.28,0-3.35.12-2.3.32-4.6.45-6.9.05-.73.32-1,1.07-1a16.8,16.8,0,0,0,3.47-.42c3.41-.89,6.54.08,9.58,1.41a4.17,4.17,0,0,1,1.58,1.8c.6,1.07,1,2.26,1.55,3.37.9,1.88,2,3.55,4.42,3.79-1.26.95-1.93.95-3,.07a22.84,22.84,0,0,0-7.58-4.31,7.24,7.24,0,0,0-4.46-.16,10.28,10.28,0,0,0-1.82,1Z" transform="translate(-181.71 -289.45)"/><path class="cls-10" d="M328.59,415.08c-1.56-.26-3-.5-4.5-.76-1.9-.33-3.8-.64-5.69-1a1.93,1.93,0,0,1-1-.77,4.8,4.8,0,0,1-.55-1.54c-.26-1.1,0-1.85,1.11-2.08a3.42,3.42,0,0,0,2.52-4.3c-.3-1.55-.62-3.1-1-4.64-.23-.92.08-1.36,1-1.48a10.07,10.07,0,0,1,5.44.81c.06,0,.16.06.17.11.59,1.53,2,1.05,3.26,1.29C329.87,405.51,329,410.2,328.59,415.08Z" transform="translate(-181.71 -289.45)"/><path class="cls-10" d="M317,424.94c.88-1.95,1.89-3.89,1.26-6.12-.34-1.21-.88-2.37-1.34-3.6,3.81,0,7.41,1.84,11.42,1.42-.43,3.53-.85,7-1.3,10.72-1.91-2.12-3.94-1.58-6-.87a38.29,38.29,0,0,1-4,1,5.62,5.62,0,0,1-1.12,0C316.36,426.49,316.68,425.71,317,424.94Z" transform="translate(-181.71 -289.45)"/><path class="cls-10" d="M318.46,429.85c1.63-.16,3.24-.5,4.88-.65a3,3,0,0,1,1.41.46c2,1,2,1,1.81,3.32s-.27,4.33-.41,6.49c0,.37-.08.73-.1.88l-8.26.95c.08-.62.12-1.18.24-1.72s.41-1.32.58-2a3.19,3.19,0,0,0-1.05-3.35,3.81,3.81,0,0,1-1.06-1.58C315.9,430.79,316.51,430,318.46,429.85Z" transform="translate(-181.71 -289.45)"/><path class="cls-10" d="M319.61,449.41a5.19,5.19,0,0,0-1.5-1.49,2.72,2.72,0,0,1-.76-2.95,1.59,1.59,0,0,1,2.07-1c2.15.43,4.3.89,6.51,1.34.21,3.16.42,6.33.63,9.64l-5.71.72A10.12,10.12,0,0,0,319.61,449.41Z" transform="translate(-181.71 -289.45)"/><path class="cls-10" d="M323.35,467.49c-.65,0-.84-.42-.58-1s.44-.86.66-1.29c1-2,.91-3.09-.62-4.77l-.9-1c.49-.16.87-.32,1.26-.41,1.3-.32,2.6-.61,3.92-.92l2.27,8c-1.56.42-3.11.86-4.68,1.25A4.23,4.23,0,0,1,323.35,467.49Z" transform="translate(-181.71 -289.45)"/><path class="cls-10" d="M325,478.35c1.86-2.8,2.06-5.28-.72-7.71,1.92-.2,3.55-.29,5.16-.56a2.35,2.35,0,0,1,2.87,1.48,36,36,0,0,0,2.71,3.88Z" transform="translate(-181.71 -289.45)"/><path class="cls-10" d="M338.27,474.48a.77.77,0,0,1-.66-.1c-1.18-1.44-2.34-2.91-3.58-4.47a39.46,39.46,0,0,0,5.53-.86c1.23-.37,2.1-.33,2.92.61.13.15.35.32.36.48,0,1.23.74,1.93,2.12,2.39C342.52,473.25,340.4,473.88,338.27,474.48Z" transform="translate(-181.71 -289.45)"/><path class="cls-10" d="M352.14,467.94c-2.84-2.29-5.85-4.25-9.6-4.66a4.62,4.62,0,0,0-4.09,1.35l.73.89c-2.05.53-4,1-5.95,1.51a.76.76,0,0,1-.66-.26,36.2,36.2,0,0,1-2.76-8.64l4.34-.54a21.5,21.5,0,0,1,3.17-.35,30.89,30.89,0,0,1,3.41.52c1.9.27,3.81.52,5.72.78a3.48,3.48,0,0,1,2.9,2.32c.44,1.08.93,2.15,1.43,3.2,1.15,2.47,1.9,3.13,4.38,3.93C353.94,468.88,353.26,468.84,352.14,467.94Z" transform="translate(-181.71 -289.45)"/><path class="cls-1" d="M389.74,388.7c-2.14,3.11-5.46,4.65-8.88,5.93a98.46,98.46,0,0,1-16.39,4.17c-4.91.92-9.81,1.81-14.72,2.72l-.2.05c-4,.81-5,2.3-5.21,7.13a9.5,9.5,0,0,0,2.23,6c.16.21.31.43.54.75a7.29,7.29,0,0,1-5.09-.22,2.43,2.43,0,0,1-1.35-2c-.57-3-1.07-6-1.67-9a32.26,32.26,0,0,0-1-3.89,6.53,6.53,0,0,0-3-3.81c-1.58-.9-3.06-2-4.64-2.91a15.61,15.61,0,0,0-8-2.61,5.09,5.09,0,0,0-3.09-4.81,18.26,18.26,0,0,0-8.37-1.44,1.11,1.11,0,0,0-.58.18c-1.38,1.24-2.94.88-4.5.51-.93-.22-1.86-.48-2.79-.76a6.34,6.34,0,0,0-6.05,1.1c-1.35,1.05-2.57,2.28-3.83,3.45a8.53,8.53,0,0,1-3.66,2.23A34.55,34.55,0,0,0,275.64,399a37.55,37.55,0,0,1-3,2.32c-1.5,1-2.5.9-3.78-.37a14.52,14.52,0,0,1-3.33-6.11,53,53,0,0,1-2.4-16.07c0-.13,0-.25,0-.54.43.5.74.89,1.09,1.25a6.24,6.24,0,0,0,8.23,1.27A15.25,15.25,0,0,0,275,379c.75-.64,1.38-1.43,2.26-2.08l-1.74,4c3.81-4.31,3.43-9.29,3.14-14.28,2.72-.95,5.42-2,8.16-2.84,1.62-.51,2.3-.13,2.93,1.42.88,2.16,1.59,4.4,2.55,6.53a8.44,8.44,0,0,0,5.87,5.22,11.94,11.94,0,0,0,3.05.23c-.81-.11-1.63-.18-2.43-.35a7.15,7.15,0,0,1-5.22-4,58.68,58.68,0,0,1-2.54-6.74c-1.15-3.43-2.24-4.08-5.78-3.12-2.12.57-4.22,1.23-6.33,1.85a2.55,2.55,0,0,1-.44,0,36.74,36.74,0,0,0-1.35-4.62,29.88,29.88,0,0,0-3-5.52,8.66,8.66,0,0,0-7-3.66,4,4,0,0,0-4.46,3.67,1.11,1.11,0,0,1-.28.66c-.92,1.94-3.56,3.38-4.29,2.79-.5-.41.37-1.4,0-3.11-.3-1.35-1.36-1.37-1.69-2.77a12.46,12.46,0,0,1,.21-7.13A5.23,5.23,0,0,1,262,341.3a21.88,21.88,0,0,0,7.63-.9A25,25,0,0,0,270,343a9.39,9.39,0,0,0,5.1,7,2,2,0,0,1,.74,1c.8,1.75,1.39,3.62,2.35,5.27,2.22,3.8,5.36,4.59,9.22,2.52l.78-.38c2.7,5.06,7.07,7.34,12.48,7.95.72.08.87.32.67,1a18.23,18.23,0,0,0-.71,2.8,7.11,7.11,0,0,0,2.31,6.15c2.86,2.9,6.41,4.73,10.05,6.4a22.88,22.88,0,0,0,7.11,2.06c2.93.32,5.64-.07,8-2.26a20.26,20.26,0,0,0,1.61,1.88,32.7,32.7,0,0,0,4.7,4c4.6,2.76,9.17,1.73,12.53-2.5,2.2-2.78,4.46-5.53,7.58-7.38,3.86-2.29,7.85-1.95,11.82-.41a2.81,2.81,0,0,1,1.4,1.65c1.91,6.21,8.55,8.78,13.86,5a20.47,20.47,0,0,0,8.68-16,20.06,20.06,0,0,1,.9-4.64,36.78,36.78,0,0,0,1.15-7.41,3.06,3.06,0,0,0-1.65-2.92c-.51-.29-.54-.57-.4-1.09a15,15,0,0,0,.49-7.44,9.65,9.65,0,0,0-2.89-4.91,1.69,1.69,0,0,1-.45-1.2,5.54,5.54,0,0,0-1.1-3.79c-1.88-2.47-3.84-4.87-5.77-7.29a19.37,19.37,0,0,1-3.92-7.88c-.58-2.61-2.4-4.43-4.55-5.92-3.11-2.15-6.67-3.23-10.23-4.32-4-1.23-8-2.5-12-3.75a2,2,0,0,0-.8-.18c-1.44.29-2.39-.52-3.49-1.28-2.77-1.92-6-2.65-9.28-3.25a48.31,48.31,0,0,0-10.81-.7,11.54,11.54,0,0,0-5.28,1.6,1.54,1.54,0,0,1-1.18.18c-4.94-2.7-9.92-2.27-14.79,0a67.74,67.74,0,0,0-6,3.76,2.22,2.22,0,0,1-1.38.41c-5.1-1.15-9.2.76-12.73,4.23a42.68,42.68,0,0,0-7.61,11.13,2.77,2.77,0,0,0-.36,1.07c-.08,1.42-1,2-2.14,2.68a19.82,19.82,0,0,0-4.16,3.17c-2.43,2.51-2.22,5.49.28,7.94.22.21.22.67.26,1,0,.15-.16.32-.16.48-.06,1.82-1.38,2.09-2.75,2.2a27.27,27.27,0,0,1-4.33.11c-2.91-.24-5.34.41-6.84,3.19l-.25-.11c.18-1.19.3-2.38.54-3.55A44.62,44.62,0,0,1,270,316.81c7.81-7.44,17.19-12.09,27.38-15.23a91.62,91.62,0,0,1,27.14-4.28,74.44,74.44,0,0,1,28.42,5.44,81.8,81.8,0,0,1,38.82,32.49A41.59,41.59,0,0,1,398,356a57.78,57.78,0,0,1-4.27,25.76A40.44,40.44,0,0,1,389.74,388.7Z" transform="translate(-181.71 -289.45)"/><path class="cls-11" d="M277.6,327.53c-.83-1.13-.06-3.47.34-4.29,2.29-4.73,4.88-9.29,9.22-12.51a10.4,10.4,0,0,1,8.25-2.15c.3.05.59.15,1.18.3-.67.6-1.21,1-1.67,1.49a44,44,0,0,0-3.18,3.51c-1.08,1.44-.52,2.62,1.25,3a8.24,8.24,0,0,0,6-.8c-1.29.18-2.88.44-4.48.63a4,4,0,0,1-1.32-.18c-1.73-.41-2.16-1.32-.93-2.6a71.4,71.4,0,0,1,5.71-5.14,38.11,38.11,0,0,1,4.29-3.22c3.79-2.38,7.85-3.7,12.38-2.57a18.06,18.06,0,0,1,2.88,1.12,2.19,2.19,0,0,1,1.49,2c.14,1.34,1.31,2,2.48,2.59-.54-.59-1.14-1.15-1.62-1.78a1.5,1.5,0,0,1,.17-2.14,6.31,6.31,0,0,1,4.32-1.95,54.11,54.11,0,0,1,16.18,1.56,9.52,9.52,0,0,1,4.88,2.54,5,5,0,0,1,1.26,2.48,19.11,19.11,0,0,0,4.4,9.18c-.95-1.84-2-3.68-2.86-5.64a12,12,0,0,1-.79-3.81c-.09-1.22.68-1.64,1.84-1.26,4.74,1.56,9.48,3.1,14.21,4.67,3.18,1.06,6.32,2.22,8.81,4.58a8.5,8.5,0,0,1,2.54,4.52c.72,3.29,2.69,5.92,4.76,8.47,1.71,2.11,3.52,4.15,5.12,6.34s1,3.64-1.38,4.65l-.14.06.45,0a5.42,5.42,0,0,1,1.38.18,1.51,1.51,0,0,1,.9.17c3,2.1,3.79,5,3.08,8.46-.34,1.61-.87,3.18-1.31,4.76-.81,2.88-2.84,3.45-5.36,3.11-.67-.09-1.34-.23-2-.35l0,.31c1.39.11,2.78.31,4.17.3a4.46,4.46,0,0,0,3.61-2.26,1.47,1.47,0,0,1,1.11-.62,1.68,1.68,0,0,1,1.13.84,3.91,3.91,0,0,1,.19,1.92,34.7,34.7,0,0,1-.95,4.64c-1,3.31-2.75,4.18-6,3.2-1.71-.51-3.45-1-5.18-1.37a10.3,10.3,0,0,0-1.57-.15c0,.06,0,.11,0,.17l9.4,3.24c-.52,2.64-2.87,4.21-7.14,4.54,4.63.92,6.94-1.85,8.77-5.42l.38.16a7.43,7.43,0,0,1,.25,2,21.59,21.59,0,0,1-7.61,13.78c-2.87,2.37-5.56,2.46-9.24.13a3.93,3.93,0,0,1-1.86-2.75c-.43-2.68-2.21-3.9-4.66-4.44a16.26,16.26,0,0,0-1.81-.4,6.53,6.53,0,0,1-1.65-.39,4.77,4.77,0,0,1-2.45-.68l.92.78a14.51,14.51,0,0,0-9.61,4.3c-1.75,1.69-3.31,3.59-4.92,5.42a9,9,0,0,1-4.49,3.15,7.52,7.52,0,0,1-7.23-2.14,44.39,44.39,0,0,1-4.52-5.32l-.08-.13a5.28,5.28,0,0,1-1.19-2.95,5.58,5.58,0,0,1-5.61,5.42,18.86,18.86,0,0,1-7.75-1.5,32.63,32.63,0,0,1-9.84-5.57c-2.3-2.05-3.12-4.45-2-7.42.34-.88.2-2.06.75-2.72s1.69-.66,2.49-1.1c1.69-.91,3.45-1.77,4.44-3.56a2.21,2.21,0,0,0,0-2.47c.25,1.77-.72,2.64-1.78,3.41-4.28,3.13-8.79,3.13-13.47,1a9.68,9.68,0,0,1-4.82-4,4.18,4.18,0,0,1-.57-2.11,6.51,6.51,0,0,1,.61-2.2c.12-.29.21-.52.3-.72a18.85,18.85,0,0,1-2,1.88,9.61,9.61,0,0,1-4.5,2.21c-2.17.41-3.42-1-4.37-2.63a17.87,17.87,0,0,1-2.63-7.55,4.77,4.77,0,0,1,.58-3,4.56,4.56,0,0,1,1.75-1.87,4.68,4.68,0,0,1,2.62-1c-2.89-.37-6.33,1.47-6.09,5.3a4.48,4.48,0,0,1-.12.82,5.89,5.89,0,0,1-.88-.36,7.91,7.91,0,0,1-2.75-9c.36-.83.77-1.18,1.72-.77a12.25,12.25,0,0,0,3.08.8,21.36,21.36,0,0,1-3.06-1.2,16,16,0,0,1-3.42-2.47c-1.2-1.19-1.05-3,.19-4.51a13.29,13.29,0,0,1,5.3-3.48.94.94,0,0,1,.8.42,4.37,4.37,0,0,0,.54,1.08c.19.05.44.08.52,0S277.72,327.69,277.6,327.53Z" transform="translate(-181.71 -289.45)"/><path class="cls-12" d="M360.71,348.29c.86,1,.81,2,0,2.67a17.08,17.08,0,0,1-3.17,2.23c-1.35.74-2.84,1.23-4.22,1.92-2.37,1.18-4.72,2.38-7,3.66a7.44,7.44,0,0,1-5.39.62q-3.48-.74-7-1.4a5.29,5.29,0,0,0-1.73,0c1.6,1.11,3.45,1.83,4.44,3.64-2.64-2.8-6.24-3.51-9.68-4.6a34.37,34.37,0,0,1-3.65-1.41c-1.6-.71-2.89-1.69-2.44-3.84-3.06,0-4.18-2.44-5.72-4.6-.13,1.05-.14,1.91-.33,2.72-.57,2.4-2,3.25-4.46,2.71-1.84-.39-3.67-.85-5.53-1.15a13.55,13.55,0,0,0-2.74.1,7.65,7.65,0,0,1,5.05-.55c1.19.15,2.36.43,3.55.63,1.72.28,2.69-.3,3-2,.47-2.92.23-5.69-2.06-7.94-1.23-1.21-2.06-2.87-3.83-3.5-.86-.31-1.71-.67-2.57-1l.06-.25,3.61,1c-.11-.49-.22-1-.32-1.47a4.23,4.23,0,0,1,4-5.36,9.9,9.9,0,0,1,1.44,0,5.32,5.32,0,0,0,5.53-3.32c.58-1.16,1.26-2.28,1.9-3.41l.22.12c-1,1.85-1.91,3.77-3.08,5.51a4.41,4.41,0,0,1-3.72,1.71,15.51,15.51,0,0,0-2.46.21,3.39,3.39,0,0,0-2.77,4.77,11.15,11.15,0,0,0,2.15,3.45c1.64,2,2.95,4.2,4.41,6.32a35.81,35.81,0,0,0,2.29,3.16,2.4,2.4,0,0,0,3.74.32c5.39-4.74,8.15-10.46,6.45-17.79-.23-1-.42-2-.56-3-.32-2.18.46-3.47,2.42-4.51a34.47,34.47,0,0,0,4.51-2.83,3.33,3.33,0,0,0,1.42-3c-.13-1.39-2.31-3-3.58-2.55-.31.11-.51.52-.76.79a41.65,41.65,0,0,1-4.27,4.43c-3.69,2.91-8.95,1.27-9.92-3.4-.25-1.19-.68-2.34-1-3.58a6.41,6.41,0,0,1,.77,1.07,13.77,13.77,0,0,1,.82,2.22c1.06,4.06,5.45,5.24,8.71,2.8a21.24,21.24,0,0,0,5.85-7.25c.47-.88.86-1.8,1.26-2.71,1.26-2.9.88-6.06-2.41-8,2.25.21,4.41,3.36,3.75,6.5a33.18,33.18,0,0,1-1.55,4.46c-.17.44-.4.86-.63,1.35a17.07,17.07,0,0,0,12.14,1.7c-3,1.32-6.16,1-9.48.52.84,1.38,1.05,2.74.12,3.93a18.73,18.73,0,0,1-2.82,2.81,16.59,16.59,0,0,1-2.5,1.44c-1.8,1-2.29,1.95-1.94,4s.81,4.25,1.27,6.37a.79.79,0,0,0,.59.5c2.31,0,4.36.9,6.47,1.63a12.53,12.53,0,0,0,6.58.75,9.8,9.8,0,0,0,6.65-4.94,3.12,3.12,0,0,1,.74-.91l-.86,2.36c2.44,1,5.05,1.71,7.05,3.56a22.15,22.15,0,0,0-7-2.31,1.81,1.81,0,0,0-1.24.34c-1,.79-2,1.67-3,2.57a2.68,2.68,0,0,0,.42.46c1.09.85,2.21,1.65,3.26,2.53a14.86,14.86,0,0,0,4.5,2.21,23.65,23.65,0,0,1,4,2.09c-6.95-3-13.72-3.94-20.36,1.22,1.32.29,2.46.44,3.53.79a3.55,3.55,0,0,1,2.38,2.33,7.2,7.2,0,0,0-5.07-1.7c-1.17,0-2.35.06-3.51,0a18.32,18.32,0,0,1-3-.54,2.74,2.74,0,0,1-1.12-.8c1.48.65,3,.27,4.47.27a4.29,4.29,0,0,0,3.22-1.38,13.11,13.11,0,0,1,9.34-3.45c.36,0,.73,0,.73.25-1.06-1.29-2.11-2.59-3.22-3.84a1.18,1.18,0,0,0-.94-.1,11.94,11.94,0,0,1-8-.79c-1.69-.75-3.44-1.37-5.18-2a6.38,6.38,0,0,0-1.27-.2c-.1,1-.15,1.87-.3,2.74a20.6,20.6,0,0,1-3.36,7.69,19,19,0,0,1-4,4.68c-1.34,1-1.25,2.11.29,2.9,1.94,1,4,1.75,6,2.6a11.11,11.11,0,0,0,4.77.71,42.82,42.82,0,0,1,7.46.77,6.4,6.4,0,0,0,4.93-.93c3-2.13,6.41-3.3,9.79-4.57a30.13,30.13,0,0,0,3.48-1.57C360.86,350.63,361.14,349.93,360.71,348.29Z" transform="translate(-181.71 -289.45)"/><path class="cls-12" d="M301.19,323.14c-1.11.7-2.19,1.35-3.22,2.05a6,6,0,0,0-1.31,1.15,1.14,1.14,0,0,0-.19,1,8.48,8.48,0,0,1,1,4.88,3.6,3.6,0,0,1-2.29,3.37c-1.72.69-3.47,1.28-5.21,1.91l-.1-.23c.86-.34,1.72-.66,2.56-1a12,12,0,0,0,3-1.52,4,4,0,0,0,1.16-2.37,5.55,5.55,0,0,0-1.47-4.68c-1.41.65-2.69,1.65-4.34,1,1.92.19,3.22-.92,4.48-2.11,1.8-1.7,3.52-3.5,5.85-4.52.25-.11.41-.52.52-.82.8-2.3,2.2-4,4.74-4.32a15.51,15.51,0,0,1,3.37.32l0,.29a20.55,20.55,0,0,0-2.94.21,5.64,5.64,0,0,0-4.19,6.6,17.48,17.48,0,0,1,.55,3.57Z" transform="translate(-181.71 -289.45)"/><path class="cls-12" d="M351.87,366.57c-1.54.55-3.07,1.13-4.62,1.63a1.8,1.8,0,0,0-1.35,1,4.83,4.83,0,0,1-1.87,1.67,12.78,12.78,0,0,1-2.3.9c-1.76.62-3.44,1.3-2.87,3.84a2.26,2.26,0,0,1,0-3.51,15.86,15.86,0,0,1,3.18-1.62c.85-.37,1.77-.56,2.63-.9a2.92,2.92,0,0,0,1.06-.92c-1.74-.22-3.49-.3-4.51-1.9a14,14,0,0,1-.91-2.25c.31,0,.39,0,.4.06a3.88,3.88,0,0,0,4.47,2.66c2.21-.23,4.41-.58,6.62-.87Z" transform="translate(-181.71 -289.45)"/><path class="cls-12" d="M370.22,355.5c1-.13,2-.31,3-.4a3.56,3.56,0,0,0,3.13-2.45,8.57,8.57,0,0,1,3.63-4c-1.06,1.88-2.14,4-3.38,6a3.48,3.48,0,0,1-3.35,1.44c-1,0-2-.2-3-.31Z" transform="translate(-181.71 -289.45)"/><path class="cls-12" d="M372.69,321.21a6,6,0,0,1,.65,5.82,6.73,6.73,0,0,1-4.45,4C373.21,327,373,324.83,372.69,321.21Z" transform="translate(-181.71 -289.45)"/><path class="cls-12" d="M358.36,372.53a5.09,5.09,0,0,1-1.24-2.94c-.88-1.7-.35-3.3,1.2-4.63a9.45,9.45,0,0,1,4.9-1.94,3.71,3.71,0,0,1,2.35.84c1.88,1.33,3.62,2.86,5.51,4.18a17.77,17.77,0,0,0,3.86,1.9c-4.23-2-6.63-6.39-10.94-8.2.07-1.14.12-2.27.21-3.39s.22-2.15.35-3.42a6.28,6.28,0,0,0-1.06,1.61,18,18,0,0,0-.46,3.35c-.09,1.64-.19,1.58-1.66,2.2a16.2,16.2,0,0,0-4.33,2.5c-2.09,1.82-1.86,5,.31,7.05C357.68,372,358,372.24,358.36,372.53Z" transform="translate(-181.71 -289.45)"/><path class="cls-12" d="M282.19,329.56l.66,0a1.49,1.49,0,0,1,.87.13,3.64,3.64,0,0,1,1,5,1.62,1.62,0,0,0-.11.3,2.78,2.78,0,0,0,1.11-3.88c-.71-1.43-.69-2.36.73-3.22.47-.29.73-.9,1.09-1.37l-.19-.15-1.1,1.32a5.52,5.52,0,0,1-4.31,1.59C282,329.33,282.11,329.44,282.19,329.56Z" transform="translate(-181.71 -289.45)"/><path class="cls-12" d="M310.22,363.87l-.25-.15a8.14,8.14,0,0,0,3.79,4.71,9.29,9.29,0,0,0,5.9,1c3.8-.6,6.61.88,8,4a6.13,6.13,0,0,1,.52,2.05,5.47,5.47,0,0,1,.65-2.17,7.52,7.52,0,0,0-3.91-4.1c-1-.45-1.48-.84-1-2a21.52,21.52,0,0,0,.81-3.19,7.29,7.29,0,0,0-.83,1.09,12.58,12.58,0,0,0-.53,1.45c-.56,1.54-.95,1.78-2.64,1.89-.86.05-1.7.32-2.55.35a7.85,7.85,0,0,1-7.86-4.62Z" transform="translate(-181.71 -289.45)"/><path class="cls-12" d="M346.45,327.93a4.28,4.28,0,0,1,.61,1.93c-.05,1-1.07.56-1.64.72a16.33,16.33,0,0,0-4.9,1.93c1.77-.44,3.83-1.09,6-1.43a8.1,8.1,0,0,1,3.76.26c3.84,1.31,7.62,2.79,11.4,4.28a11.89,11.89,0,0,1,2.59,1.48c1.68,1.22,3,2.71,2.79,5a37.13,37.13,0,0,1-.55,5.5c-.47,2-2.08,2.89-4,3.21-.55.08-1.09.16-1.62.28,2.54-.06,4.92-.45,6.2-3.15l2.31.47c4.19.82,7.71-.65,9.76-4a4.83,4.83,0,0,1,2-3.34c-1.92.43-3-.07-3.87-1.9-.76-1.51-1.43-3.05-2.15-4.58a8.15,8.15,0,0,0-.52-.79c.74,1.88,1.44,3.69,2.17,5.49a3.9,3.9,0,0,0,1.94,2.3,1,1,0,0,1,.36.95,7.65,7.65,0,0,1-5.68,5.06,10.36,10.36,0,0,1-5.21-.29c-.56-.16-.74-.37-.66-1,.16-1.33.14-2.68.24-4a6.21,6.21,0,0,0-3-5.82,34.92,34.92,0,0,0-8.82-4c-2.31-.79-4.62-1.54-7-2.32a2.25,2.25,0,0,1,2-.37,44.15,44.15,0,0,0,6.64.7c3.12-.12,5.34-2,7.13-4.66-1,.92-1.88,1.81-2.85,2.53-2.48,1.85-5.25,1.83-8.09,1.08a14.63,14.63,0,0,0-2.32-.52c-1.07-.09-2.16,0-3.29,0-2.35-3.35-4.05-4.07-8.52-3.38,2.28,0,4.3.11,5.95,1.5A3.45,3.45,0,0,1,346.45,327.93Z" transform="translate(-181.71 -289.45)"/></svg>