<?xml version="1.0" encoding="UTF-8" standalone="no"?><svg xmlns="http://www.w3.org/2000/svg" viewBox="0 0 1339.24 1529.95"><defs><style>.cls-1{fill:#fff;}</style></defs><g id="Layer_2" data-name="Layer 2"><g id="Layer_1-2" data-name="Layer 1"><path class="cls-1" d="M144.62,1248.54a21,21,0,0,1-4.09-41.6c22.4-4.48,43-13.93,59.7-27.32,12.78-10.27,24.13-22.92,36.16-36.3,20.32-22.63,41.34-46,71.25-59.66,22.24-10.13,45.41-13,67.82-15.69,8.54-1,16.62-2,24.55-3.4,17.22-3,47.67-11.22,58-32.93,9.84-20.67-1.64-48.19-17.4-66.3-11.27-12.94-25.16-23.89-39.86-35.48-10.54-8.3-21.43-16.89-31.67-26.53-19.67-18.51-51.64-56.54-44.72-103.23s48.28-74.6,81.55-97.08l6.6-4.48c13.75-9.35,57.79-42.39,47.73-74.95-5.95-19.26-29.72-30.48-43.36-35.45-7.44-2.71-15.16-5-23.34-7.43-17.52-5.2-35.63-10.58-52.68-20.69-38.25-22.68-64.43-66-71.81-118.91-3.57-25.52-3.2-52.5,1.2-87.46A21,21,0,0,1,312,358.88c-3.92,31.14-4.31,54.71-1.27,76.42,5.52,39.58,24.83,72.7,51.64,88.6,12.57,7.45,27.45,11.87,43.21,16.55,8.41,2.5,17.11,5.08,25.75,8.23,36.71,13.38,60.61,35,69.12,62.51,7.3,23.63,2.62,48.9-13.52,73.09-14.62,21.91-35.64,38.73-50.7,49l-6.72,4.55c-29.17,19.72-59.34,40.11-63.52,68.44-4.28,28.85,20.92,56.11,31.95,66.5,8.9,8.37,18.61,16,28.89,24.13,15.57,12.27,31.67,25,45.54,40.88,13.14,15.1,23,33.24,27.84,51.08,5.87,21.72,4.42,42.77-4.21,60.87-13.92,29.17-44.62,48.61-88.79,56.25-9,1.54-17.94,2.64-26.61,3.7-20.13,2.46-39.15,4.78-55.5,12.22-21.93,10-39.17,29.19-57.42,49.51-12.61,14-25.66,28.56-41.08,41-21.89,17.6-48.79,30-77.79,35.77A20.92,20.92,0,0,1,144.62,1248.54Z"/><path class="cls-1" d="M794.9,1014.64c-19.11,0-38.14-8.32-50.48-23.55-16.46-20.35-18.94-44.37-19.19-65.19v-.15c-.05-9.91-1.71-13.61-4.38-16.36-1.55-1.59-6.63-2.86-14.52-2.12-3,.28-6.09.75-9.41,1.24-8.48,1.27-18.1,2.7-28.52,1.52-22.38-2.52-40.06-17.84-43-37.27-2.89-19,7.92-32.58,15.81-42.48,3.26-4.1,6.64-8.33,7.71-11.35.88-2.47,1-6.68,1.11-11.14.06-2.29.12-4.65.28-7.17a101.19,101.19,0,0,1,33.76-68.78c19.07-16.83,45.75-26.94,75.11-28.46,27.22-1.42,53.47,4.38,73.3,9.59,21,5.52,43,12.71,61.59,27.84,22.93,18.7,34.38,46.15,29.88,71.65-3.67,20.85-16.51,35.77-27.83,48.94-5.87,6.82-11.41,13.27-15.08,19.78-6.38,11.35-8.64,25.82-11,41.15-.83,5.26-1.68,10.69-2.71,16.14-6.6,34.61-21.34,58-43.8,69.42A63,63,0,0,1,794.9,1014.64Zm-27.67-89.17c.2,16.48,2,29.46,9.84,39.19,6.14,7.58,18.66,10.24,27.34,5.81,12.83-6.55,18.84-25.29,21.62-39.87.91-4.75,1.67-9.61,2.47-14.76,2.73-17.48,5.83-37.3,15.93-55.25,5.71-10.15,12.89-18.5,19.83-26.57,8.93-10.39,16.64-19.36,18.32-28.85,2.08-11.79-6.07-24.48-15.07-31.82-12.33-10.06-29.25-15.44-45.7-19.76-16.89-4.43-39-9.38-60.47-8.27-19.92,1-37.5,7.43-49.48,18a59.67,59.67,0,0,0-19.65,40c-.11,1.7-.16,3.56-.21,5.54-.18,6.84-.4,15.35-3.52,24.11-3.42,9.63-9.27,17-14.44,23.46-2.23,2.8-5.79,7.27-6.85,9.62a12.75,12.75,0,0,0,5.91,2.22c5,.56,11.13-.36,17.65-1.33,3.71-.55,7.56-1.12,11.62-1.51,20.6-2,37.41,3.13,48.62,14.68C765.23,894.82,767.16,912.07,767.23,925.47Z"/><path class="cls-1" d="M780.51,463.23a76.22,76.22,0,0,1-27.58-5c-24.19-9.3-43.49-32.5-52.92-63.65-4.19-13.87-6.29-27.67-8.31-41-1.38-9.05-2.68-17.59-4.56-25.89-7.21-31.76-24.42-62-48.45-85.14a21,21,0,0,1,29.14-30.25C697.69,241,719.1,278.7,728.1,318.35c2.22,9.78,3.69,19.49,5.12,28.88,1.89,12.44,3.67,24.19,7,35.17,2.67,8.81,10.73,30.05,27.79,36.6,17.28,6.66,39.82-3.22,57.53-12.56l5.43-2.89c23.16-12.36,49.41-26.38,79.64-23.74,19.14,1.66,35.71,9.85,50.33,17.08,4.77,2.37,9.29,4.6,13.77,6.57,43.41,19.1,97.41,14.91,140.94-10.92a21,21,0,1,1,21.43,36.12,205.38,205.38,0,0,1-104.28,28.58,186.42,186.42,0,0,1-75-15.33c-5.35-2.35-10.5-4.9-15.49-7.37-12.38-6.13-24.08-11.92-35.33-12.89-17.81-1.55-36.48,8.41-56.24,19l-5.58,3C826.7,453.31,804.09,463.23,780.51,463.23Z"/><path class="cls-1" d="M168.92,498.21a21,21,0,0,1-16.62-33.82,669.66,669.66,0,0,1,126.08-125,659.69,659.69,0,0,1,374.1-133,666.58,666.58,0,0,1,144.93,10.48,21,21,0,1,1-7.59,41.31A624,624,0,0,0,654,248.35c-127.72,4.74-248.86,47.81-350.32,124.57A627.45,627.45,0,0,0,185.57,490,21,21,0,0,1,168.92,498.21Z"/><path class="cls-1" d="M676.55,1530A663.09,663.09,0,0,1,128.77,1239C22,1081.57-11.59,885.22,36.63,700.32a21,21,0,1,1,40.64,10.59C32.11,884.12,63.55,1068,163.53,1215.44a621.41,621.41,0,0,0,450,269.3c186.6,19.15,369.62-45.85,502.11-178.34a617.82,617.82,0,0,0,167.2-305.23c.05-.2.09-.39.14-.58a618.88,618.88,0,0,0-167.34-571.07c-1.3-1.3-2.61-2.61-3.93-3.89a617.84,617.84,0,0,0-169.47-118.4,21,21,0,0,1,17.95-38,659.82,659.82,0,0,1,180.9,126.37c1.39,1.35,2.82,2.77,4.25,4.2a662.63,662.63,0,0,1,178.54,610.33c0,.19-.09.39-.14.59a659.65,659.65,0,0,1-178.4,325.35c-71.66,71.67-156.21,124.67-251.3,157.55A668.1,668.1,0,0,1,676.55,1530Z"/><path class="cls-1" d="M1190.75,1047.28a21,21,0,0,1-2.15-41.89c6.45-.67,13-1.28,19.27-1.87,11.16-1,21.69-2,32.18-3.36,20.19-2.54,39.31-7.36,55.32-13.93a21,21,0,1,1,15.37,39.09c-19.52,7.94-41.53,13.5-65.43,16.51-11.16,1.41-22.53,2.48-33.52,3.51-6.19.58-12.6,1.18-18.83,1.83C1192.22,1047.24,1191.48,1047.28,1190.75,1047.28Z"/><path class="cls-1" d="M611.37,1526.64a21,21,0,0,1-19.39-29c1.32-3.21,2.68-6.41,4-9.62,7.76-18.25,15.08-35.5,15.89-52.65.75-15.93-4.09-32.57-9.21-50.19-2.59-8.91-5.27-18.12-7.33-27.62-9.35-43,.9-80.22,27.42-99.62,18-13.14,40.25-16.76,66.17-10.77,21.09,4.88,41.18,15.26,56.32,23.76,24.87,13.94,58.11,27.38,75.21,12.22,11-9.74,12.35-28.39,13.93-50,1.92-26.15,4.09-55.78,26.14-77.13,21.35-20.63,49.33-22.13,74-23.45,12-.64,23.35-1.24,33.08-3.86,18.45-5,33.72-17.74,51-35.42a21,21,0,1,1,30.05,29.34c-19.11,19.57-40.84,38.78-70.14,46.65-14,3.75-28.1,4.51-41.74,5.24-19.85,1-37,2-47,11.69-10.54,10.2-12,29.54-13.46,50-2,26.85-4.2,57.27-27.95,78.34-11.72,10.4-32.63,21.53-65.72,15.56-17.27-3.12-36.76-10.71-57.91-22.57-38.59-21.66-62.38-26.51-77.15-15.72-15,11-15.38,37.45-11.17,56.8,1.76,8.09,4.12,16.22,6.62,24.81,5.85,20.15,11.91,41,10.83,63.9-1.16,24.66-10.32,46.23-19.18,67.09-1.31,3.08-2.62,6.17-3.9,9.26A21,21,0,0,1,611.37,1526.64Z"/><path class="cls-1" d="M1317.61,861a20.85,20.85,0,0,1-7.88-1.54c-5.21-2.12-10.65-4.23-16.62-6.45l-7.47-2.76c-39.32-14.43-83.87-30.79-105.15-72.35-13.28-26-13.14-55.26-13-78.78.21-44.25.49-104.87,33.65-150.83a180.6,180.6,0,0,1,14.62-17.56,21,21,0,0,1,30.78,28.58,140.71,140.71,0,0,0-11.32,13.53c-23.4,32.43-25.5,76.47-25.73,126.49-.1,19.95-.21,42.57,8.42,59.44,13.78,26.93,48.57,39.7,82.22,52.06l7.64,2.81c6.38,2.38,12.18,4.63,17.77,6.9a21,21,0,0,1-7.91,40.46Z"/><path class="cls-1" d="M889.81,371.85a21,21,0,0,1-13.18-4.64c-5.36-4.33-131.47-107.27-131.47-222.56C745.16,64.89,810.05,0,889.81,0s144.65,64.89,144.65,144.65c0,115.29-126.1,218.23-131.47,222.56A21,21,0,0,1,889.81,371.85Zm0-329.85A102.77,102.77,0,0,0,787.16,144.65c0,75.74,72.26,150.28,102.63,178.26,30.36-28,102.67-102.72,102.67-178.26A102.77,102.77,0,0,0,889.81,42Z"/><path class="cls-1" d="M889.81,222.85a77.67,77.67,0,1,1,77.66-77.67A77.75,77.75,0,0,1,889.81,222.85Zm0-113.33a35.67,35.67,0,1,0,35.66,35.66A35.7,35.7,0,0,0,889.81,109.52Z"/><path class="cls-1" d="M144.65,825.68A21,21,0,0,1,131.47,821C126.1,816.71,0,713.76,0,598.47c0-79.76,64.89-144.64,144.65-144.64s144.64,64.88,144.64,144.64c0,115.29-126.1,218.24-131.47,222.56A20.94,20.94,0,0,1,144.65,825.68Zm0-329.85A102.76,102.76,0,0,0,42,598.47C42,674,114.27,748.68,144.65,776.72,175,748.68,247.29,674,247.29,598.47A102.75,102.75,0,0,0,144.65,495.83Z"/><path class="cls-1" d="M144.65,676.67A77.66,77.66,0,1,1,222.31,599,77.75,77.75,0,0,1,144.65,676.67Zm0-113.32A35.66,35.66,0,1,0,180.31,599,35.7,35.7,0,0,0,144.65,563.35Z"/><path class="cls-1" d="M1085,1179.52a21,21,0,0,1-13.17-4.64c-5.37-4.33-131.47-107.27-131.47-222.57,0-79.75,64.89-144.64,144.64-144.64s144.65,64.89,144.65,144.64c0,115.3-126.1,218.24-131.47,222.57A21,21,0,0,1,1085,1179.52Zm0-329.85A102.76,102.76,0,0,0,982.31,952.31c0,75.53,72.27,150.21,102.64,178.26,30.37-28,102.65-102.73,102.65-178.26A102.77,102.77,0,0,0,1085,849.67Z"/><path class="cls-1" d="M1085,1030.52a77.67,77.67,0,1,1,77.67-77.67A77.75,77.75,0,0,1,1085,1030.52Zm0-113.33a35.67,35.67,0,1,0,35.67,35.66A35.7,35.7,0,0,0,1085,917.19Z"/></g></g></svg>