<?xml version="1.0" encoding="UTF-8" standalone="no"?><svg xmlns="http://www.w3.org/2000/svg" viewBox="0 0 415.85 245.42"><defs><style>.cls-1{fill:#fff;}</style></defs><g id="Layer_2" data-name="Layer 2"><g id="Icons"><path class="cls-1" d="M394.64,245.42H295.86a36.55,36.55,0,0,1-26.24-11.19L126.22,84.7c-2.22-2.31-5.56-5.8-6.1-10.68-.51-4.48,1.49-8.26,3.41-11.45,12.68-21.08,33.36-41.84,58.23-58.48a23.78,23.78,0,0,1,21.32-2.71,24.09,24.09,0,0,1,15.09,15.69c6.91,22.07,33.76,46.75,59.33,46.75,8,0,19.08-8.78,27.14-15.19l.2-.17c7.36-5.85,15.47-7,21.69-3,6.72,4.28,9.54,13.34,7.19,23.07a41.54,41.54,0,0,1-20.83,27.12c8.09,16.53,17,34.39,25,50.3,4.39,8.78,8.58,17.14,12.27,24.57a70.1,70.1,0,0,1,64.45,46.4A21.45,21.45,0,0,1,412,236.45,21,21,0,0,1,394.64,245.42ZM195.1,10a14,14,0,0,0-7.78,2.39C163.65,28.24,144,47.88,132.1,67.72c-1.07,1.78-2.2,3.8-2,5.19s2,3.46,3.38,4.87l143.4,149.53a26.46,26.46,0,0,0,19,8.11h98.78a11,11,0,0,0,9.14-4.73,11.26,11.26,0,0,0,1.4-10.41,60,60,0,0,0-56.44-39.77l-1.57,0h-.11a5,5,0,0,1-4.49-2.78c-4-8.09-8.68-17.43-13.64-27.33-8.71-17.41-18.59-37.15-27.26-55a5,5,0,0,1,2.67-6.84A31.87,31.87,0,0,0,324,66.19c1.51-6.28-.34-10.7-2.85-12.3s-6.17-.71-10.08,2.4l-.21.16C301.13,64.19,289,73.82,277.5,73.82c-30.66,0-60.91-28.33-68.88-53.76a14.18,14.18,0,0,0-8.87-9.25A13.87,13.87,0,0,0,195.1,10Z"/><path class="cls-1" d="M404.57,225.66h-.11c-36-1.51-111.15-3.92-111.9-3.94a2.53,2.53,0,0,1-1.72-.76c-1-1-99.25-102.79-156.36-163.71a2.5,2.5,0,1,1,3.64-3.42C192.66,112,284.74,207.44,293.73,216.75c9.13.3,77.18,2.5,110.94,3.91a2.5,2.5,0,0,1-.1,5Z"/><path class="cls-1" d="M293.26,218.84a2.54,2.54,0,0,1-1.29-.36,2.5,2.5,0,0,1-.84-3.44c14.12-23.33,40.85-39,68.12-39.86h.08a2.5,2.5,0,0,1,.08,5c-25.62.83-50.74,15.53-64,37.46A2.49,2.49,0,0,1,293.26,218.84Z"/><path class="cls-1" d="M297,132.05a2.5,2.5,0,0,1-.88-4.84,162,162,0,0,1,22.32-6.53,2.5,2.5,0,0,1,1.06,4.89,156.18,156.18,0,0,0-21.63,6.32A2.43,2.43,0,0,1,297,132.05Z"/><path class="cls-1" d="M314.19,163a2.5,2.5,0,0,1-1-4.8,74.74,74.74,0,0,1,20.26-5.53,2.5,2.5,0,1,1,.63,5,69.72,69.72,0,0,0-18.91,5.16A2.43,2.43,0,0,1,314.19,163Z"/><path class="cls-1" d="M287.74,95.31c-19.6,0-40.45-5.82-59.61-16.92C201.27,62.82,181.89,38.85,175,12.61a2.5,2.5,0,1,1,4.83-1.28c6.59,25,25.13,47.83,50.85,62.73,25,14.51,53,19.63,76.74,14A2.5,2.5,0,1,1,308.53,93,90.76,90.76,0,0,1,287.74,95.31Z"/><path class="cls-1" d="M166.54,201.66H32.85a5,5,0,1,1,0-10H166.54a5,5,0,0,1,0,10Z"/><path class="cls-1" d="M120,157.9H58.35a5,5,0,1,1,0-10H120a5,5,0,0,1,0,10Z"/><path class="cls-1" d="M194.4,245.42H5a5,5,0,0,1,0-10H194.4a5,5,0,0,1,0,10Z"/></g></g></svg>