<?xml version="1.0" encoding="UTF-8" standalone="no"?><svg xmlns="http://www.w3.org/2000/svg" viewBox="0 0 254.74 339.48"><defs><style>.cls-1{fill:#fff;}</style></defs><g id="Layer_2" data-name="Layer 2"><g id="Icons"><path class="cls-1" d="M185.52,81.29a5,5,0,0,1-5-5V38.46A28.49,28.49,0,0,0,152.07,10H88.41A28.49,28.49,0,0,0,60,38.46V76.29a5,5,0,0,1-10,0V38.46A38.5,38.5,0,0,1,88.41,0h63.66a38.5,38.5,0,0,1,38.45,38.46V76.29A5,5,0,0,1,185.52,81.29Z"/><path class="cls-1" d="M152.07,339.48H88.41A38.5,38.5,0,0,1,50,301V263.19a5,5,0,0,1,10,0V301a28.49,28.49,0,0,0,28.45,28.46h63.66A28.5,28.5,0,0,0,180.53,301V263.19a5,5,0,0,1,10,0V301A38.51,38.51,0,0,1,152.07,339.48Z"/><path class="cls-1" d="M134,226.14h0a5,5,0,0,1-4.63-3.12c-6-14.81-10.52-29.28-15.29-44.6-4.56-14.6-9.24-29.62-15.69-46.67L82,171.58a5,5,0,0,1-5.16,3.07c-3.15-.22-44.62-.3-71.82-.3a5,5,0,0,1,0-10c18,0,56.47,0,69,.24l19.81-48.16a5,5,0,0,1,4.63-3.09h0a5,5,0,0,1,4.62,3.12c9.08,22.36,14.88,41,20.49,59,3.45,11.06,6.76,21.68,10.58,32.23,9.84-23.26,17.66-39.94,17.75-40.13a5,5,0,0,1,4.53-2.87h0s27.28,0,47,.06a5,5,0,0,1,0,10h0l-43.85-.05c-3.18,6.9-11.65,25.53-21,48.35A5,5,0,0,1,134,226.14ZM76.85,174.65h0Z"/><path class="cls-1" d="M173.57,269.79H66.91A40.83,40.83,0,0,1,26.13,229V200.62a5,5,0,0,1,10,0V229a30.82,30.82,0,0,0,30.78,30.78H173.57A30.82,30.82,0,0,0,204.35,229V200.62a5,5,0,0,1,10,0V229A40.82,40.82,0,0,1,173.57,269.79Z"/><path class="cls-1" d="M209.35,139.35a5,5,0,0,1-5-5V110.47a30.82,30.82,0,0,0-30.78-30.78H66.91a30.82,30.82,0,0,0-30.78,30.78v23.88a5,5,0,0,1-10,0V110.47A40.83,40.83,0,0,1,66.91,69.69H173.57a40.82,40.82,0,0,1,40.78,40.78v23.88A5,5,0,0,1,209.35,139.35Z"/><path class="cls-1" d="M165.39,54.09H75.09a2.5,2.5,0,0,1,0-5h90.3a2.5,2.5,0,0,1,0,5Z"/><path class="cls-1" d="M165.39,290.39H75.09a2.5,2.5,0,0,1,0-5h90.3a2.5,2.5,0,0,1,0,5Z"/><path class="cls-1" d="M240.72,189.13H235a14,14,0,0,1-14-14V164.37a14,14,0,0,1,14-14h5.72a14,14,0,0,1,14,14v10.74A14,14,0,0,1,240.72,189.13ZM235,160.35a4,4,0,0,0-4,4v10.74a4,4,0,0,0,4,4h5.72a4,4,0,0,0,4-4V164.37a4,4,0,0,0-4-4Z"/></g></g></svg>