<?xml version="1.0" encoding="UTF-8" standalone="no"?><svg xmlns="http://www.w3.org/2000/svg" viewBox="0 0 321.21 257.15"><defs><style>.cls-1{fill:#fff;}</style></defs><g id="Layer_2" data-name="Layer 2"><g id="Icons"><path class="cls-1" d="M16.57,104.85a5,5,0,0,1-4.81-3.67A82,82,0,0,1,8.69,79.33,79.33,79.33,0,0,1,162.35,51.6,79.33,79.33,0,0,1,316,79.33a81.74,81.74,0,0,1-2.72,20.59,5,5,0,1,1-9.68-2.52A71.58,71.58,0,0,0,306,79.33a69.33,69.33,0,1,0-138.66,0,5,5,0,1,1-10,0,69.33,69.33,0,0,0-138.66,0A72.06,72.06,0,0,0,21.4,98.52a5,5,0,0,1-3.49,6.15A5.2,5.2,0,0,1,16.57,104.85Z"/><path class="cls-1" d="M152.42,188.16h0a5,5,0,0,1-4.63-3.12c-6.86-16.9-12-33.42-17.46-50.91-5.36-17.19-10.87-34.87-18.59-55.08l-19.41,47.2a5,5,0,0,1-5.18,3.06C83.72,129.06,36.2,129,5,129a5,5,0,0,1,0-10c16.33,0,65,0,79.39.29l22.82-55.49a5,5,0,0,1,4.62-3.1h0a5,5,0,0,1,4.63,3.12c10.36,25.54,17,46.8,23.4,67.37,4.13,13.25,8.08,25.94,12.72,38.58,11.57-27.45,20.88-47.29,21-47.51a5,5,0,0,1,4.53-2.88H316.21a5,5,0,0,1,0,10H181.29c-3.48,7.54-13.32,29.15-24.25,55.72A5,5,0,0,1,152.42,188.16ZM87.17,129.31h0Z"/><path class="cls-1" d="M162.35,257.15a5,5,0,0,1-3.18-1.14c-.8-.67-80.71-66.55-113.44-99.83a5,5,0,0,1,7.13-7c28.66,29.14,94.29,83.88,109.49,96.49,15-12.41,78.75-65.61,108.08-95.07a5,5,0,0,1,7.09,7.06C244,191.33,166.31,255.36,165.53,256A5,5,0,0,1,162.35,257.15Z"/><path class="cls-1" d="M283.89,75.27a2,2,0,0,1-2-1.92,41.58,41.58,0,0,0-37.7-39.78,2,2,0,0,1,.37-4A45.57,45.57,0,0,1,285.89,73.2,2,2,0,0,1,284,75.27Z"/></g></g></svg>